<?xml version="1.0" encoding="UTF-8" standalone="no"?>
<!-- Created with Inkscape (http://www.inkscape.org/) -->

<svg
   xmlns:dc="http://purl.org/dc/elements/1.1/"
   xmlns:cc="http://creativecommons.org/ns#"
   xmlns:rdf="http://www.w3.org/1999/02/22-rdf-syntax-ns#"
   xmlns:svg="http://www.w3.org/2000/svg"
   xmlns="http://www.w3.org/2000/svg"
   version="1.1"
   width="217.01601"
   height="61.676998"
   id="svg3605">
  <defs
     id="defs3607" />
  <metadata
     id="metadata3610">
    <rdf:RDF>
      <cc:Work
         rdf:about="">
        <dc:format>image/svg+xml</dc:format>
        <dc:type
           rdf:resource="http://purl.org/dc/dcmitype/StillImage" />
        <dc:title></dc:title>
      </cc:Work>
    </rdf:RDF>
  </metadata>
  <g
     transform="translate(-259.43359,-471.21808)"
     id="layer1">
    <g
       transform="translate(-40.874407,306.64108)"
       id="g229">
      <path
         d="m 327.207,217.253 -2.968,-4.744 -17.146,0 -3.021,4.744 -3.764,0 c 1.184,-1.925 2.39,-3.878 3.617,-5.856 1.229,-1.979 2.434,-3.922 3.617,-5.83 1.184,-1.908 2.333,-3.754 3.445,-5.539 1.113,-1.785 2.164,-3.463 3.154,-5.036 0.282,-0.601 0.777,-0.901 1.484,-0.901 0.652,0 1.139,0.3 1.457,0.901 l 13.912,22.261 -3.787,0 z m -18.074,-8.03 13.013,0 -5.963,-9.567 c -0.194,-0.318 -0.371,-0.477 -0.53,-0.477 -0.177,0 -0.354,0.159 -0.529,0.477 l -5.991,9.567 z"
         id="path231" />
      <path
         d="m 360.65,215.743 c -1.271,1.007 -2.809,1.51 -4.611,1.51 l -16.006,0 c -1.82,0 -3.34,-0.495 -4.559,-1.484 -1.308,-1.024 -1.961,-2.288 -1.961,-3.79 l 0,-12.615 c 0,-1.466 0.653,-2.72 1.961,-3.763 1.272,-1.007 2.81,-1.51 4.611,-1.51 l 16.033,0 c 1.678,0 3.101,0.468 4.267,1.405 1.22,0.937 2.005,2.412 2.358,4.425 l -3.26,0 c -0.229,-0.972 -0.662,-1.652 -1.298,-2.041 -0.548,-0.335 -1.246,-0.503 -2.095,-0.503 l -16.006,0 c -0.954,0 -1.767,0.221 -2.438,0.663 -0.584,0.371 -0.875,0.813 -0.875,1.325 l 0,12.615 c 0,0.53 0.291,0.99 0.875,1.378 l -0.027,-0.026 c 0.654,0.441 1.458,0.662 2.412,0.662 l 16.006,0 c 0.83,0 1.572,-0.176 2.227,-0.53 0.777,-0.371 1.166,-0.875 1.166,-1.511 l 0,-4.638 -12.959,0 0,-3.26 16.192,0 0,7.924 c 0.002,1.467 -0.67,2.721 -2.013,3.764 z"
         id="path233" />
      <path
         d="m 394.863,205.805 c -1.219,0.99 -2.748,1.484 -4.585,1.484 l -19.319,0 0,9.964 -3.259,0 0,-17.888 c 0,-1.466 0.653,-2.72 1.961,-3.763 1.272,-1.007 2.81,-1.51 4.61,-1.51 l 16.007,0 c 1.784,0 3.304,0.503 4.559,1.51 1.325,1.043 1.987,2.297 1.987,3.763 l 0,2.65 c 0,1.502 -0.653,2.765 -1.961,3.79 z m -1.271,-6.44 c 0,-0.495 -0.301,-0.936 -0.902,-1.325 -0.671,-0.442 -1.475,-0.663 -2.411,-0.663 l -16.032,0 c -0.813,0 -1.547,0.168 -2.199,0.503 -0.726,0.336 -1.088,0.831 -1.088,1.484 l 0,4.665 19.319,0 c 0.937,0 1.74,-0.212 2.411,-0.636 0.602,-0.388 0.902,-0.848 0.902,-1.378 l 0,-2.65 z"
         id="path235" />
      <path
         d="m 430.983,212.085 c -0.266,1.573 -1.007,2.836 -2.227,3.79 -1.184,0.919 -2.614,1.378 -4.293,1.378 l -16.033,0 c -1.802,0 -3.33,-0.495 -4.584,-1.484 -1.325,-1.024 -1.987,-2.288 -1.987,-3.79 l 0,-17.862 3.312,0 0,17.862 c 0,0.53 0.292,0.99 0.875,1.378 l -0.027,-0.026 c 0.654,0.441 1.458,0.662 2.412,0.662 l 16.033,0 c 0.813,0 1.52,-0.176 2.12,-0.53 l -0.025,0 c 0.636,-0.389 1.067,-1.051 1.298,-1.987 l 2.597,0 0.529,0.609 z"
         id="path237" />
    </g>
    <g
       transform="translate(-40.874407,306.64108)"
       id="g239">
      <g
         id="g241">
        <path
           d="m 483.223,164.577 19.454,0 -29.968,50.5 c -1.712,2.815 -3.382,4.981 -5.01,6.499 -1.628,1.518 -3.132,2.622 -4.512,3.311 -1.379,0.691 -2.566,1.091 -3.559,1.201 -0.994,0.111 -1.686,0.166 -2.07,0.166 l -17.882,0 0,-43.628 16.724,0 0.082,29.968 26.741,-48.017 z"
           id="path243"
           style="fill:#742e68" />
      </g>
    </g>
    <g
       transform="translate(-40.874407,306.64108)"
       id="g275">
      <path
         d="m 517.324,211.954 c 0,1.505 -0.664,2.771 -1.992,3.798 -1.221,0.992 -2.744,1.487 -4.568,1.487 l -16.068,0 c -1.682,0 -3.107,-0.452 -4.275,-1.354 -1.258,-0.974 -2.055,-2.461 -2.391,-4.462 l 3.268,0 c 0.229,0.938 0.654,1.611 1.274,2.019 l -0.026,0 c 0.602,0.354 1.318,0.531 2.15,0.531 l 16.068,0 c 0.921,0 1.718,-0.213 2.391,-0.638 0.602,-0.389 0.903,-0.85 0.903,-1.381 l 0,-2.656 c 0,-0.495 -0.302,-0.938 -0.903,-1.328 -0.708,-0.46 -1.514,-0.691 -2.416,-0.691 l -8.553,0 0,-3.267 8.578,0 c 0.939,0 1.736,-0.221 2.391,-0.664 0.602,-0.389 0.903,-0.841 0.903,-1.354 l 0,-2.656 c 0,-0.496 -0.302,-0.938 -0.903,-1.328 -0.708,-0.46 -1.514,-0.69 -2.416,-0.69 l -16.043,0 c -0.814,0 -1.522,0.177 -2.124,0.531 l 0.026,0 c -0.637,0.372 -1.071,1.045 -1.301,2.019 l -3.268,0 c 0.318,-2.019 1.098,-3.488 2.338,-4.409 1.168,-0.938 2.611,-1.407 4.328,-1.407 l 16.068,0 c 1.789,0 3.312,0.496 4.568,1.487 1.328,1.045 1.992,2.311 1.992,3.798 0,1.292 -0.053,2.47 -0.159,3.532 -0.036,0.531 -0.212,1.019 -0.531,1.461 -0.142,0.195 -0.306,0.398 -0.491,0.611 -0.185,0.213 -0.412,0.443 -0.678,0.69 0.514,0.478 0.903,0.921 1.169,1.328 0.301,0.496 0.478,0.974 0.531,1.434 0.107,1.045 0.16,2.231 0.16,3.559 z"
         id="path277" />
    </g>
  </g>
</svg>
