<?xml version="1.0" encoding="UTF-8" standalone="no"?>
<!-- Created with Inkscape (http://www.inkscape.org/) -->

<svg
   xmlns:dc="http://purl.org/dc/elements/1.1/"
   xmlns:cc="http://creativecommons.org/ns#"
   xmlns:rdf="http://www.w3.org/1999/02/22-rdf-syntax-ns#"
   xmlns:svg="http://www.w3.org/2000/svg"
   xmlns="http://www.w3.org/2000/svg"
   xmlns:xlink="http://www.w3.org/1999/xlink"
   version="1.1"
   width="168.28259"
   height="47.484001"
   id="body"
   xml:space="preserve"><metadata
     id="metadata748"><rdf:RDF><cc:Work
         rdf:about=""><dc:format>image/svg+xml</dc:format><dc:type
           rdf:resource="http://purl.org/dc/dcmitype/StillImage" /><dc:title></dc:title></cc:Work></rdf:RDF></metadata><defs
     id="defs746"><linearGradient
       x1="-3817.3999"
       y1="-3498.7"
       x2="-3818.3"
       y2="-3475.5"
       id="linearGradient3364"
       xlink:href="#AIgd3"
       gradientUnits="userSpaceOnUse"
       gradientTransform="matrix(0.5318,4e-4,-4e-4,0.5318,2070.8,1900.1)" /><linearGradient
       x1="-3817.3999"
       y1="-3498.7"
       x2="-3818.3"
       y2="-3475.5"
       id="linearGradient3366"
       xlink:href="#AIgd3"
       gradientUnits="userSpaceOnUse"
       gradientTransform="matrix(0.5318,4e-4,-4e-4,0.5318,2070.8,1900.1)" /><linearGradient
       x1="-3817.3999"
       y1="-3498.7"
       x2="-3818.3"
       y2="-3475.5"
       id="linearGradient3368"
       xlink:href="#AIgd3"
       gradientUnits="userSpaceOnUse"
       gradientTransform="matrix(0.5318,4e-4,-4e-4,0.5318,2070.8,1900.1)" /><linearGradient
       x1="-3817.3999"
       y1="-3498.7"
       x2="-3818.3"
       y2="-3475.5"
       id="linearGradient3370"
       xlink:href="#AIgd3"
       gradientUnits="userSpaceOnUse"
       gradientTransform="matrix(0.5318,4e-4,-4e-4,0.5318,2070.8,1900.1)" /><linearGradient
       x1="-3872.2"
       y1="-3504"
       x2="-3872.3999"
       y2="-3493.2"
       id="linearGradient3372"
       xlink:href="#AIgd10"
       gradientUnits="userSpaceOnUse"
       gradientTransform="matrix(0.5318,4e-4,-4e-4,0.5318,2070.8,1900.1)" /><linearGradient
       x1="-3878.1001"
       y1="-3508.3999"
       x2="-3874.5"
       y2="-3484.8999"
       id="linearGradient3374"
       xlink:href="#AIgd11"
       gradientUnits="userSpaceOnUse"
       gradientTransform="matrix(0.5318,4e-4,-4e-4,0.5318,2070.8,1900.1)" /><linearGradient
       x1="-3872.2"
       y1="-3504"
       x2="-3872.3999"
       y2="-3493.2"
       id="linearGradient3376"
       xlink:href="#AIgd10"
       gradientUnits="userSpaceOnUse"
       gradientTransform="matrix(0.5318,4e-4,-4e-4,0.5318,2070.8,1900.1)" /><linearGradient
       x1="-3878.1001"
       y1="-3508.3999"
       x2="-3874.5"
       y2="-3484.8999"
       id="linearGradient3378"
       xlink:href="#AIgd11"
       gradientUnits="userSpaceOnUse"
       gradientTransform="matrix(0.5318,4e-4,-4e-4,0.5318,2070.8,1900.1)" /><linearGradient
       x1="-3872.2"
       y1="-3504"
       x2="-3872.3999"
       y2="-3493.2"
       id="linearGradient3380"
       xlink:href="#AIgd10"
       gradientUnits="userSpaceOnUse"
       gradientTransform="matrix(0.5318,4e-4,-4e-4,0.5318,2070.8,1900.1)" /><linearGradient
       x1="-3872.2"
       y1="-3504"
       x2="-3872.3999"
       y2="-3493.2"
       id="linearGradient3382"
       xlink:href="#AIgd10"
       gradientUnits="userSpaceOnUse"
       gradientTransform="matrix(0.5318,4e-4,-4e-4,0.5318,2070.8,1900.1)" /><linearGradient
       x1="-3872.2"
       y1="-3504"
       x2="-3872.3999"
       y2="-3493.2"
       id="linearGradient3384"
       xlink:href="#AIgd10"
       gradientUnits="userSpaceOnUse"
       gradientTransform="matrix(0.5318,4e-4,-4e-4,0.5318,2070.8,1900.1)" /><linearGradient
       x1="-3716.8"
       y1="-3522.2"
       x2="-3726.8"
       y2="-3555.2"
       id="linearGradient3386"
       xlink:href="#AIgd18"
       gradientUnits="userSpaceOnUse"
       gradientTransform="matrix(0.5318,4e-4,-4e-4,0.5318,2070.8,1900.1)" /><linearGradient
       x1="-3818.3"
       y1="-3506.2"
       x2="-3836.3"
       y2="-3532.3999"
       id="linearGradient3388"
       xlink:href="#AIgd19"
       gradientUnits="userSpaceOnUse"
       gradientTransform="matrix(0.5318,4e-4,-4e-4,0.5318,2070.8,1900.1)" /><linearGradient
       x1="-3716.8"
       y1="-3522.2"
       x2="-3726.8"
       y2="-3555.2"
       id="linearGradient3390"
       xlink:href="#AIgd18"
       gradientUnits="userSpaceOnUse"
       gradientTransform="matrix(0.5318,4e-4,-4e-4,0.5318,2070.8,1900.1)" /><linearGradient
       x1="-3818.3"
       y1="-3506.2"
       x2="-3836.3"
       y2="-3532.3999"
       id="linearGradient3392"
       xlink:href="#AIgd19"
       gradientUnits="userSpaceOnUse"
       gradientTransform="matrix(0.5318,4e-4,-4e-4,0.5318,2070.8,1900.1)" /><linearGradient
       x1="-3716.8"
       y1="-3522.2"
       x2="-3726.8"
       y2="-3555.2"
       id="linearGradient3394"
       xlink:href="#AIgd18"
       gradientUnits="userSpaceOnUse"
       gradientTransform="matrix(0.5318,4e-4,-4e-4,0.5318,2070.8,1900.1)" /><linearGradient
       x1="-3818.3"
       y1="-3506.2"
       x2="-3836.3"
       y2="-3532.3999"
       id="linearGradient3396"
       xlink:href="#AIgd19"
       gradientUnits="userSpaceOnUse"
       gradientTransform="matrix(0.5318,4e-4,-4e-4,0.5318,2070.8,1900.1)" /><linearGradient
       x1="-3716.8"
       y1="-3522.2"
       x2="-3726.8"
       y2="-3555.2"
       id="linearGradient3398"
       xlink:href="#AIgd18"
       gradientUnits="userSpaceOnUse"
       gradientTransform="matrix(0.5318,4e-4,-4e-4,0.5318,2070.8,1900.1)" /><linearGradient
       x1="-3872.2"
       y1="-3504"
       x2="-3872.3999"
       y2="-3493.2"
       id="linearGradient3400"
       xlink:href="#AIgd10"
       gradientUnits="userSpaceOnUse"
       gradientTransform="matrix(0.5318,4e-4,-4e-4,0.5318,2070.8,1900.1)" /><linearGradient
       x1="-3878.1001"
       y1="-3508.3999"
       x2="-3874.5"
       y2="-3484.8999"
       id="linearGradient3402"
       xlink:href="#AIgd11"
       gradientUnits="userSpaceOnUse"
       gradientTransform="matrix(0.5318,4e-4,-4e-4,0.5318,2070.8,1900.1)" /><linearGradient
       x1="-3878.1001"
       y1="-3508.3999"
       x2="-3874.5"
       y2="-3484.8999"
       id="linearGradient3404"
       xlink:href="#AIgd11"
       gradientUnits="userSpaceOnUse"
       gradientTransform="matrix(0.5318,4e-4,-4e-4,0.5318,2070.8,1900.1)" /><linearGradient
       x1="-3878.1001"
       y1="-3508.3999"
       x2="-3874.5"
       y2="-3484.8999"
       id="linearGradient3406"
       xlink:href="#AIgd11"
       gradientUnits="userSpaceOnUse"
       gradientTransform="matrix(0.5318,4e-4,-4e-4,0.5318,2070.8,1900.1)" /><linearGradient
       x1="-3872.2"
       y1="-3504"
       x2="-3872.3999"
       y2="-3493.2"
       id="linearGradient3408"
       xlink:href="#AIgd10"
       gradientUnits="userSpaceOnUse"
       gradientTransform="matrix(0.5318,4e-4,-4e-4,0.5318,2070.8,1900.1)" /><linearGradient
       x1="-3872.2"
       y1="-3504"
       x2="-3872.3999"
       y2="-3493.2"
       id="linearGradient3410"
       xlink:href="#AIgd10"
       gradientUnits="userSpaceOnUse"
       gradientTransform="matrix(0.5318,4e-4,-4e-4,0.5318,2070.8,1900.1)" /><linearGradient
       x1="-3644.5"
       y1="-3531.6001"
       x2="-3636.6001"
       y2="-3508.3999"
       id="linearGradient3412"
       xlink:href="#AIgd31"
       gradientUnits="userSpaceOnUse"
       gradientTransform="matrix(0.5318,4e-4,-4e-4,0.5318,2070.8,1900.1)" /><linearGradient
       x1="-3644.5"
       y1="-3531.6001"
       x2="-3636.6001"
       y2="-3508.3999"
       id="linearGradient3414"
       xlink:href="#AIgd31"
       gradientUnits="userSpaceOnUse"
       gradientTransform="matrix(0.5318,4e-4,-4e-4,0.5318,2070.8,1900.1)" /><linearGradient
       x1="-3644.5"
       y1="-3531.6001"
       x2="-3636.6001"
       y2="-3508.3999"
       id="linearGradient3416"
       xlink:href="#AIgd31"
       gradientUnits="userSpaceOnUse"
       gradientTransform="matrix(0.5318,4e-4,-4e-4,0.5318,2070.8,1900.1)" /><linearGradient
       x1="-3644.5"
       y1="-3531.6001"
       x2="-3636.6001"
       y2="-3508.3999"
       id="linearGradient3418"
       xlink:href="#AIgd31"
       gradientUnits="userSpaceOnUse"
       gradientTransform="matrix(0.5318,4e-4,-4e-4,0.5318,2070.8,1900.1)" /><linearGradient
       x1="-3716.3"
       y1="-3509.7"
       x2="-3713.7"
       y2="-3491.7"
       id="linearGradient3420"
       xlink:href="#AIgd36"
       gradientUnits="userSpaceOnUse"
       gradientTransform="matrix(0.5318,4e-4,-4e-4,0.5318,2070.8,1900.1)" /><linearGradient
       x1="-3716.3"
       y1="-3509.7"
       x2="-3713.7"
       y2="-3491.7"
       id="linearGradient3422"
       xlink:href="#AIgd36"
       gradientUnits="userSpaceOnUse"
       gradientTransform="matrix(0.5318,4e-4,-4e-4,0.5318,2070.8,1900.1)" /><linearGradient
       x1="-3716.5"
       y1="-3513"
       x2="-3712.3999"
       y2="-3473.3"
       id="linearGradient3424"
       xlink:href="#AIgd38"
       gradientUnits="userSpaceOnUse"
       gradientTransform="matrix(0.5318,4e-4,-4e-4,0.5318,2070.8,1900.1)" /><linearGradient
       x1="-3716.3"
       y1="-3509.7"
       x2="-3713.7"
       y2="-3491.7"
       id="linearGradient3426"
       xlink:href="#AIgd36"
       gradientUnits="userSpaceOnUse"
       gradientTransform="matrix(0.5318,4e-4,-4e-4,0.5318,2070.8,1900.1)" /><linearGradient
       x1="-3716.5"
       y1="-3513"
       x2="-3712.3999"
       y2="-3473.3"
       id="linearGradient3428"
       xlink:href="#AIgd38"
       gradientUnits="userSpaceOnUse"
       gradientTransform="matrix(0.5318,4e-4,-4e-4,0.5318,2070.8,1900.1)" /><linearGradient
       x1="-3718.5"
       y1="-3510.1001"
       x2="-3716.7"
       y2="-3483"
       id="linearGradient3430"
       xlink:href="#AIgd42"
       gradientUnits="userSpaceOnUse"
       gradientTransform="matrix(0.5318,4e-4,-4e-4,0.5318,2070.8,1900.1)" /><linearGradient
       x1="-3718.5"
       y1="-3510.1001"
       x2="-3716.7"
       y2="-3483"
       id="linearGradient3432"
       xlink:href="#AIgd42"
       gradientUnits="userSpaceOnUse"
       gradientTransform="matrix(0.5318,4e-4,-4e-4,0.5318,2070.8,1900.1)" /><linearGradient
       x1="-3716.5"
       y1="-3513"
       x2="-3712.3999"
       y2="-3473.3"
       id="linearGradient3434"
       xlink:href="#AIgd38"
       gradientUnits="userSpaceOnUse"
       gradientTransform="matrix(0.5318,4e-4,-4e-4,0.5318,2070.8,1900.1)" /><linearGradient
       x1="-3716.5"
       y1="-3513"
       x2="-3712.3999"
       y2="-3473.3"
       id="linearGradient3436"
       xlink:href="#AIgd38"
       gradientUnits="userSpaceOnUse"
       gradientTransform="matrix(0.5318,4e-4,-4e-4,0.5318,2070.8,1900.1)" /><linearGradient
       x1="-3716.3"
       y1="-3509.7"
       x2="-3713.7"
       y2="-3491.7"
       id="linearGradient3438"
       xlink:href="#AIgd36"
       gradientUnits="userSpaceOnUse"
       gradientTransform="matrix(0.5318,4e-4,-4e-4,0.5318,2070.8,1900.1)" /><linearGradient
       x1="-3716.5"
       y1="-3513"
       x2="-3712.3999"
       y2="-3473.3"
       id="linearGradient3440"
       xlink:href="#AIgd38"
       gradientUnits="userSpaceOnUse"
       gradientTransform="matrix(0.5318,4e-4,-4e-4,0.5318,2070.8,1900.1)" /><linearGradient
       x1="-3716.3"
       y1="-3509.7"
       x2="-3713.7"
       y2="-3491.7"
       id="linearGradient3442"
       xlink:href="#AIgd36"
       gradientUnits="userSpaceOnUse"
       gradientTransform="matrix(0.5318,4e-4,-4e-4,0.5318,2070.8,1900.1)" /><linearGradient
       x1="-3716.5"
       y1="-3513"
       x2="-3712.3999"
       y2="-3473.3"
       id="linearGradient3444"
       xlink:href="#AIgd38"
       gradientUnits="userSpaceOnUse"
       gradientTransform="matrix(0.5318,4e-4,-4e-4,0.5318,2070.8,1900.1)" /><linearGradient
       x1="-3716.3"
       y1="-3509.7"
       x2="-3713.7"
       y2="-3491.7"
       id="linearGradient3446"
       xlink:href="#AIgd36"
       gradientUnits="userSpaceOnUse"
       gradientTransform="matrix(0.5318,4e-4,-4e-4,0.5318,2070.8,1900.1)" /><linearGradient
       x1="-3716.8"
       y1="-3522.2"
       x2="-3726.8"
       y2="-3555.2"
       id="linearGradient3448"
       xlink:href="#AIgd18"
       gradientUnits="userSpaceOnUse"
       gradientTransform="matrix(0.5318,4e-4,-4e-4,0.5318,2070.8,1900.1)" /><linearGradient
       x1="-3690.8999"
       y1="-3526.3"
       x2="-3702.7"
       y2="-3558.3"
       id="linearGradient3450"
       xlink:href="#AIgd52"
       gradientUnits="userSpaceOnUse"
       gradientTransform="matrix(0.5318,4e-4,-4e-4,0.5318,2070.8,1900.1)" /><linearGradient
       x1="-3716.8"
       y1="-3522.2"
       x2="-3726.8"
       y2="-3555.2"
       id="linearGradient3452"
       xlink:href="#AIgd18"
       gradientUnits="userSpaceOnUse"
       gradientTransform="matrix(0.5318,4e-4,-4e-4,0.5318,2070.8,1900.1)" /><linearGradient
       x1="-3690.8999"
       y1="-3526.3"
       x2="-3702.7"
       y2="-3558.3"
       id="linearGradient3454"
       xlink:href="#AIgd52"
       gradientUnits="userSpaceOnUse"
       gradientTransform="matrix(0.5318,4e-4,-4e-4,0.5318,2070.8,1900.1)" /><linearGradient
       x1="-3716.8"
       y1="-3522.2"
       x2="-3726.8"
       y2="-3555.2"
       id="linearGradient3456"
       xlink:href="#AIgd18"
       gradientUnits="userSpaceOnUse"
       gradientTransform="matrix(0.5318,4e-4,-4e-4,0.5318,2070.8,1900.1)" /><linearGradient
       x1="-3690.8999"
       y1="-3526.3"
       x2="-3702.7"
       y2="-3558.3"
       id="linearGradient3458"
       xlink:href="#AIgd52"
       gradientUnits="userSpaceOnUse"
       gradientTransform="matrix(0.5318,4e-4,-4e-4,0.5318,2070.8,1900.1)" /><linearGradient
       x1="-3716.8"
       y1="-3522.2"
       x2="-3726.8"
       y2="-3555.2"
       id="linearGradient3460"
       xlink:href="#AIgd18"
       gradientUnits="userSpaceOnUse"
       gradientTransform="matrix(0.5318,4e-4,-4e-4,0.5318,2070.8,1900.1)" /><linearGradient
       x1="-3716.8"
       y1="-3522.2"
       x2="-3726.8"
       y2="-3555.2"
       id="linearGradient3462"
       xlink:href="#AIgd18"
       gradientUnits="userSpaceOnUse"
       gradientTransform="matrix(0.5318,4e-4,-4e-4,0.5318,2070.8,1900.1)" /><linearGradient
       x1="-3690.8999"
       y1="-3526.3"
       x2="-3702.7"
       y2="-3558.3"
       id="linearGradient3464"
       xlink:href="#AIgd52"
       gradientUnits="userSpaceOnUse"
       gradientTransform="matrix(0.5318,4e-4,-4e-4,0.5318,2070.8,1900.1)" /><linearGradient
       x1="-3716.8"
       y1="-3522.2"
       x2="-3726.8"
       y2="-3555.2"
       id="linearGradient3466"
       xlink:href="#AIgd18"
       gradientUnits="userSpaceOnUse"
       gradientTransform="matrix(0.5318,4e-4,-4e-4,0.5318,2070.8,1900.1)" /><linearGradient
       x1="-3690.8999"
       y1="-3526.3"
       x2="-3702.7"
       y2="-3558.3"
       id="linearGradient3468"
       xlink:href="#AIgd52"
       gradientUnits="userSpaceOnUse"
       gradientTransform="matrix(0.5318,4e-4,-4e-4,0.5318,2070.8,1900.1)" /><linearGradient
       x1="-3716.8"
       y1="-3522.2"
       x2="-3726.8"
       y2="-3555.2"
       id="linearGradient3470"
       xlink:href="#AIgd18"
       gradientUnits="userSpaceOnUse"
       gradientTransform="matrix(0.5318,4e-4,-4e-4,0.5318,2070.8,1900.1)" /><linearGradient
       x1="-3690.8999"
       y1="-3526.3"
       x2="-3702.7"
       y2="-3558.3"
       id="linearGradient3472"
       xlink:href="#AIgd52"
       gradientUnits="userSpaceOnUse"
       gradientTransform="matrix(0.5318,4e-4,-4e-4,0.5318,2070.8,1900.1)" /><linearGradient
       x1="-3716.8"
       y1="-3522.2"
       x2="-3726.8"
       y2="-3555.2"
       id="linearGradient3474"
       xlink:href="#AIgd18"
       gradientUnits="userSpaceOnUse"
       gradientTransform="matrix(0.5318,4e-4,-4e-4,0.5318,2070.8,1900.1)" /><linearGradient
       x1="-3690.8999"
       y1="-3526.3"
       x2="-3702.7"
       y2="-3558.3"
       id="linearGradient3476"
       xlink:href="#AIgd52"
       gradientUnits="userSpaceOnUse"
       gradientTransform="matrix(0.5318,4e-4,-4e-4,0.5318,2070.8,1900.1)" /><linearGradient
       x1="-3716.8"
       y1="-3522.2"
       x2="-3726.8"
       y2="-3555.2"
       id="linearGradient3478"
       xlink:href="#AIgd18"
       gradientUnits="userSpaceOnUse"
       gradientTransform="matrix(0.5318,4e-4,-4e-4,0.5318,2070.8,1900.1)" /><linearGradient
       x1="-3716.8"
       y1="-3522.2"
       x2="-3726.8"
       y2="-3555.2"
       id="linearGradient3480"
       xlink:href="#AIgd18"
       gradientUnits="userSpaceOnUse"
       gradientTransform="matrix(0.5318,4e-4,-4e-4,0.5318,2070.8,1900.1)" /><linearGradient
       x1="-3716.8"
       y1="-3522.2"
       x2="-3726.8"
       y2="-3555.2"
       id="linearGradient3482"
       xlink:href="#AIgd18"
       gradientUnits="userSpaceOnUse"
       gradientTransform="matrix(0.5318,4e-4,-4e-4,0.5318,2070.8,1900.1)" /><linearGradient
       x1="-3772.3999"
       y1="-3509.7"
       x2="-3797.3"
       y2="-3537.7"
       id="linearGradient3484"
       xlink:href="#AIgd69"
       gradientUnits="userSpaceOnUse"
       gradientTransform="matrix(0.5318,4e-4,-4e-4,0.5318,2070.8,1900.1)" /><linearGradient
       x1="-3772.3999"
       y1="-3509.7"
       x2="-3797.3"
       y2="-3537.7"
       id="linearGradient3486"
       xlink:href="#AIgd69"
       gradientUnits="userSpaceOnUse"
       gradientTransform="matrix(0.5318,4e-4,-4e-4,0.5318,2070.8,1900.1)" /><linearGradient
       x1="-3704.8999"
       y1="-3493.8999"
       x2="-3688.8"
       y2="-3442.3"
       id="linearGradient3488"
       xlink:href="#AIgd72"
       gradientUnits="userSpaceOnUse"
       gradientTransform="matrix(0.5318,4e-4,-4e-4,0.5318,2110.5,1859.4)" /><linearGradient
       x1="-3704.8999"
       y1="-3493.8999"
       x2="-3688.8"
       y2="-3442.3"
       id="linearGradient3490"
       xlink:href="#AIgd72"
       gradientUnits="userSpaceOnUse"
       gradientTransform="matrix(0.5318,4e-4,-4e-4,0.5318,2110.5,1859.4)" /><linearGradient
       x1="-3704.8999"
       y1="-3493.8999"
       x2="-3688.8"
       y2="-3442.3"
       id="linearGradient3492"
       xlink:href="#AIgd72"
       gradientUnits="userSpaceOnUse"
       gradientTransform="matrix(0.5318,4e-4,-4e-4,0.5318,2110.5,1859.4)" /><linearGradient
       x1="-3704.8999"
       y1="-3493.8999"
       x2="-3688.8"
       y2="-3442.3"
       id="linearGradient3494"
       xlink:href="#AIgd72"
       gradientUnits="userSpaceOnUse"
       gradientTransform="matrix(0.5318,4e-4,-4e-4,0.5318,2110.5,1859.4)" /><linearGradient
       x1="-3704.8999"
       y1="-3493.8999"
       x2="-3688.8"
       y2="-3442.3"
       id="linearGradient3496"
       xlink:href="#AIgd72"
       gradientUnits="userSpaceOnUse"
       gradientTransform="matrix(0.5318,4e-4,-4e-4,0.5318,2110.5,1859.4)" /><linearGradient
       x1="-3704.8999"
       y1="-3493.8999"
       x2="-3688.8"
       y2="-3442.3"
       id="linearGradient3498"
       xlink:href="#AIgd72"
       gradientUnits="userSpaceOnUse"
       gradientTransform="matrix(0.5318,4e-4,-4e-4,0.5318,2110.5,1859.4)" /><linearGradient
       x1="-3704.8999"
       y1="-3493.8999"
       x2="-3688.8"
       y2="-3442.3"
       id="linearGradient3500"
       xlink:href="#AIgd72"
       gradientUnits="userSpaceOnUse"
       gradientTransform="matrix(0.5318,4e-4,-4e-4,0.5318,2110.5,1859.4)" /><linearGradient
       x1="-3704.8999"
       y1="-3493.8999"
       x2="-3688.8"
       y2="-3442.3"
       id="linearGradient3502"
       xlink:href="#AIgd72"
       gradientUnits="userSpaceOnUse"
       gradientTransform="matrix(0.5318,4e-4,-4e-4,0.5318,2110.5,1859.4)" /><linearGradient
       x1="-3704.8999"
       y1="-3493.8999"
       x2="-3688.8"
       y2="-3442.3"
       id="linearGradient3504"
       xlink:href="#AIgd72"
       gradientUnits="userSpaceOnUse"
       gradientTransform="matrix(0.5318,4e-4,-4e-4,0.5318,2110.5,1859.4)" /><linearGradient
       x1="-3704.8999"
       y1="-3493.8999"
       x2="-3688.8"
       y2="-3442.3"
       id="linearGradient3506"
       xlink:href="#AIgd72"
       gradientUnits="userSpaceOnUse"
       gradientTransform="matrix(0.5318,4e-4,-4e-4,0.5318,2110.5,1859.4)" /><defs
       id="defs167"><linearGradient
         x1="-3510.3999"
         y1="4186.2998"
         x2="-3520.3999"
         y2="4153.2998"
         id="AIgd1"
         gradientUnits="userSpaceOnUse"
         gradientTransform="matrix(0.5318,4e-4,-4e-4,0.5318,-2022.6,2980.7)"><stop
           id="stop170"
           style="stop-color:#4f0c81;stop-opacity:1"
           offset="0" /><stop
           id="stop172"
           style="stop-color:#690c73;stop-opacity:1"
           offset="0.0701" /><stop
           id="stop174"
           style="stop-color:#9a0a5b;stop-opacity:1"
           offset="0.20900001" /><stop
           id="stop176"
           style="stop-color:#c20748;stop-opacity:1"
           offset="0.33680001" /><stop
           id="stop178"
           style="stop-color:#e0053a;stop-opacity:1"
           offset="0.45120001" /><stop
           id="stop180"
           style="stop-color:#f20032;stop-opacity:1"
           offset="0.54809999" /><stop
           id="stop182"
           style="stop-color:#fa002f;stop-opacity:1"
           offset="0.61580002" /><stop
           id="stop184"
           style="stop-color:#f7ee5f;stop-opacity:1"
           offset="1" /></linearGradient></defs><linearGradient
       x1="-3498.5"
       y1="4158"
       x2="-3482.3999"
       y2="4209.6001"
       id="linearGradient3807"
       xlink:href="#AIgd71"
       gradientUnits="userSpaceOnUse"
       gradientTransform="matrix(0.5318,4e-4,-4e-4,0.5318,-1982.9,3021.4)" /><linearGradient
       x1="-3510.3999"
       y1="4186.2998"
       x2="-3520.3999"
       y2="4153.2998"
       id="linearGradient3809"
       xlink:href="#AIgd1"
       gradientUnits="userSpaceOnUse"
       gradientTransform="matrix(0.5318,4e-4,-4e-4,0.5318,-2022.6,2980.7)" /></defs><g
     transform="translate(0.0568,0.051)"
     id="g186"
     style="fill:url(#linearGradient3809);stroke:#000000;stroke-width:0.25400001"><path
       d="m 0.241,40.672 c 13.561,-1.867 63.613,-4.393 85.943,-8.051 17.961,-2.937 35.502,-8.285 52.242,-13.9 4.328,-1.453 11.991,-4.434 16.896,-7.07 3.104,-2.373 10.571,-5.889 12.606,-9.222 C 135.478,17.836 122.415,22.078 84.346,29.783 68.91,32.952 12.729,37.504 0.241,40.672 z"
       id="path188"
       style="fill:#000000;stroke-width:0.59560001" /><defs
       id="defs190"><linearGradient
         x1="-3788.1001"
         y1="-3507.6001"
         x2="-3789.2"
         y2="-3479.3999"
         id="AIgd2"
         gradientUnits="userSpaceOnUse"
         gradientTransform="matrix(0.5318,4e-4,-4e-4,0.5318,2070.8,1900.1)"><stop
           id="stop193"
           style="stop-color:#4f0c81;stop-opacity:1"
           offset="0" /><stop
           id="stop195"
           style="stop-color:#690c73;stop-opacity:1"
           offset="0.0701" /><stop
           id="stop197"
           style="stop-color:#9a0a5b;stop-opacity:1"
           offset="0.20900001" /><stop
           id="stop199"
           style="stop-color:#c20748;stop-opacity:1"
           offset="0.33680001" /><stop
           id="stop201"
           style="stop-color:#e0053a;stop-opacity:1"
           offset="0.45120001" /><stop
           id="stop203"
           style="stop-color:#f20032;stop-opacity:1"
           offset="0.54809999" /><stop
           id="stop205"
           style="stop-color:#fa002f;stop-opacity:1"
           offset="0.61580002" /><stop
           id="stop207"
           style="stop-color:#f7ee5f;stop-opacity:1"
           offset="1" /></linearGradient></defs><path
       d="m 48.261,46.645 1.454,0.498 1.418,0.118 1.417,-0.229 1.417,-0.574 1.379,-0.766 1.38,-0.994 1.305,-1.146 1.301,-1.226 1.228,-1.26 1.149,-1.267 1.111,-1.224 1.035,-1.148 0.958,-0.957 0.881,-0.763 0.767,-0.501 0.689,-0.228 -0.576,0.036 -0.611,0.038 -0.689,0.077 -0.688,0.074 -0.69,0.078 -0.689,0.076 -0.689,0.038 -0.612,0.076 -0.957,0.88 -0.921,0.842 -0.805,0.842 -0.729,0.844 -0.727,0.801 -0.688,0.805 -0.652,0.764 -0.691,0.729 -0.688,0.727 -0.729,0.65 -0.767,0.65 -0.882,0.61 -0.919,0.576 -1.034,0.535 -1.149,0.496 -1.302,0.421 z"
       id="path209"
       style="fill:url(#AIgd2)" /><defs
       id="defs211"><linearGradient
         x1="-3817.3999"
         y1="-3498.7"
         x2="-3818.3"
         y2="-3475.5"
         id="AIgd3"
         gradientUnits="userSpaceOnUse"
         gradientTransform="matrix(0.5318,4e-4,-4e-4,0.5318,2070.8,1900.1)"><stop
           id="stop214"
           style="stop-color:#4f0c81;stop-opacity:1"
           offset="0" /><stop
           id="stop216"
           style="stop-color:#690c73;stop-opacity:1"
           offset="0.0701" /><stop
           id="stop218"
           style="stop-color:#9a0a5b;stop-opacity:1"
           offset="0.20900001" /><stop
           id="stop220"
           style="stop-color:#c20748;stop-opacity:1"
           offset="0.33680001" /><stop
           id="stop222"
           style="stop-color:#e0053a;stop-opacity:1"
           offset="0.45120001" /><stop
           id="stop224"
           style="stop-color:#f20032;stop-opacity:1"
           offset="0.54809999" /><stop
           id="stop226"
           style="stop-color:#fa002f;stop-opacity:1"
           offset="0.61580002" /><stop
           id="stop228"
           style="stop-color:#f7ee5f;stop-opacity:1"
           offset="1" /></linearGradient></defs><path
       d="m 43.511,46.45 1.688,0.271 1.569,0.038 1.455,-0.15 1.377,-0.345 1.265,-0.534 1.151,-0.652 1.148,-0.766 1.034,-0.879 1.035,-0.918 0.957,-0.995 0.959,-1.072 0.921,-1.032 0.956,-1.033 0.96,-1.033 0.958,-0.955 0.995,-0.881 -0.381,0.037 h -0.423 l -0.384,0.039 -0.419,0.037 -0.424,0.037 -0.421,0.078 -0.42,0.035 -0.42,0.041 -0.421,0.037 -0.461,0.037 -0.422,0.078 -0.459,0.037 -0.459,0.037 -0.46,0.037 h -0.46 l -0.459,0.039 -0.347,0.535 -0.42,0.651 -0.537,0.765 -0.575,0.805 -0.69,0.881 -0.729,0.879 -0.766,0.918 -0.805,0.879 -0.844,0.844 -0.84,0.805 -0.885,0.726 -0.842,0.612 -0.844,0.496 -0.843,0.346 -0.804,0.189 h -0.768 z"
       id="path230"
       style="fill:url(#linearGradient3364)" /><defs
       id="defs232"><linearGradient
         x1="-3806.8999"
         y1="-3505.3"
         x2="-3807.8"
         y2="-3480.6001"
         id="AIgd4"
         gradientUnits="userSpaceOnUse"
         gradientTransform="matrix(0.5318,4e-4,-4e-4,0.5318,2070.8,1900.1)"><stop
           id="stop235"
           style="stop-color:#4f0c81;stop-opacity:1"
           offset="0" /><stop
           id="stop237"
           style="stop-color:#690c73;stop-opacity:1"
           offset="0.0701" /><stop
           id="stop239"
           style="stop-color:#9a0a5b;stop-opacity:1"
           offset="0.20900001" /><stop
           id="stop241"
           style="stop-color:#c20748;stop-opacity:1"
           offset="0.33680001" /><stop
           id="stop243"
           style="stop-color:#e0053a;stop-opacity:1"
           offset="0.45120001" /><stop
           id="stop245"
           style="stop-color:#f20032;stop-opacity:1"
           offset="0.54809999" /><stop
           id="stop247"
           style="stop-color:#fa002f;stop-opacity:1"
           offset="0.61580002" /><stop
           id="stop249"
           style="stop-color:#f7ee5f;stop-opacity:1"
           offset="1" /></linearGradient></defs><path
       d="m 40.371,46.487 0.958,0.115 0.919,0.076 0.881,-0.037 0.881,-0.152 0.882,-0.19 0.843,-0.344 0.841,-0.421 0.883,-0.574 0.882,-0.65 0.882,-0.764 0.882,-0.921 0.919,-0.993 0.958,-1.188 0.997,-1.3 1.034,-1.416 1.074,-1.607 -0.651,-0.002 -0.613,0.039 -0.614,0.076 -0.612,0.076 -0.611,0.078 -0.613,0.072 h -1.415 l -0.616,0.612 -0.573,0.65 -0.576,0.614 -0.574,0.688 -0.575,0.65 -0.535,0.689 -0.576,0.648 -0.539,0.691 -0.572,0.65 -0.574,0.65 -0.612,0.65 -0.577,0.613 -0.65,0.572 -0.652,0.574 -0.65,0.573 -0.729,0.499 z"
       id="path251"
       style="fill:url(#AIgd4)" /><path
       d="m 37.041,46.329 0.728,0.387 0.802,0.153 0.807,-0.116 0.842,-0.342 0.844,-0.5 0.881,-0.689 0.88,-0.764 0.884,-0.917 0.841,-0.958 0.884,-0.993 0.804,-0.997 0.805,-0.957 0.768,-0.957 0.729,-0.84 0.689,-0.729 0.614,-0.613 -4.099,0.382 -0.462,0.612 -0.498,0.61 -0.458,0.616 -0.459,0.608 -0.46,0.614 -0.5,0.612 -0.461,0.612 -0.497,0.612 -0.537,0.573 -0.537,0.611 -0.536,0.578 -0.613,0.57 -0.612,0.574 -0.653,0.576 -0.688,0.536 -0.728,0.532 z"
       id="path253"
       style="fill:url(#linearGradient3366)" /><defs
       id="defs255"><linearGradient
         x1="-3825.3999"
         y1="-3503.8999"
         x2="-3826.3"
         y2="-3480.1001"
         id="AIgd6"
         gradientUnits="userSpaceOnUse"
         gradientTransform="matrix(0.5318,4e-4,-4e-4,0.5318,2070.8,1900.1)"><stop
           id="stop258"
           style="stop-color:#4f0c81;stop-opacity:1"
           offset="0" /><stop
           id="stop260"
           style="stop-color:#690c73;stop-opacity:1"
           offset="0.0701" /><stop
           id="stop262"
           style="stop-color:#9a0a5b;stop-opacity:1"
           offset="0.20900001" /><stop
           id="stop264"
           style="stop-color:#c20748;stop-opacity:1"
           offset="0.33680001" /><stop
           id="stop266"
           style="stop-color:#e0053a;stop-opacity:1"
           offset="0.45120001" /><stop
           id="stop268"
           style="stop-color:#f20032;stop-opacity:1"
           offset="0.54809999" /><stop
           id="stop270"
           style="stop-color:#fa002f;stop-opacity:1"
           offset="0.61580002" /><stop
           id="stop272"
           style="stop-color:#f7ee5f;stop-opacity:1"
           offset="1" /></linearGradient></defs><path
       d="m 30.262,45.444 1.188,0.767 1.109,0.5 1.11,0.231 h 1.074 l 1.033,-0.191 0.995,-0.343 0.955,-0.538 0.96,-0.687 0.919,-0.841 0.923,-0.881 0.84,-1.037 0.884,-1.031 0.843,-1.109 0.844,-1.146 0.805,-1.148 0.805,-1.111 -0.688,0.115 -0.536,0.037 -0.384,0.037 -0.345,0.039 -0.343,0.039 -0.346,-10e-4 -0.499,0.037 -0.651,0.037 -0.729,1.034 -0.727,0.955 -0.729,0.921 -0.805,0.804 -0.767,0.727 -0.767,0.689 -0.804,0.611 -0.768,0.536 -0.766,0.458 -0.768,0.421 -0.727,0.306 -0.689,0.269 -0.689,0.229 -0.614,0.152 -0.612,0.075 -0.537,0.038 z"
       id="path274"
       style="fill:url(#AIgd6)" /><path
       d="m 26.7,45.21 1.228,0.153 1.186,0.08 1.149,-0.078 1.109,-0.151 1.036,-0.227 1.033,-0.345 0.958,-0.422 0.92,-0.535 0.92,-0.572 0.844,-0.651 0.843,-0.727 0.803,-0.804 0.766,-0.842 0.73,-0.918 0.729,-0.959 0.689,-0.994 -0.767,0.039 -0.844,0.074 -0.802,0.076 -0.806,0.038 -0.69,0.077 -0.574,0.035 -0.421,0.039 -0.191,0.037 -0.076,0.078 -0.191,0.19 -0.308,0.306 -0.382,0.385 -0.422,0.459 -0.536,0.536 -0.577,0.573 -0.648,0.614 -0.731,0.608 -0.764,0.65 -0.768,0.615 -0.843,0.611 -0.88,0.572 -0.881,0.535 -0.921,0.46 -0.92,0.385 z"
       id="path276"
       style="fill:url(#linearGradient3368)" /><defs
       id="defs278"><linearGradient
         x1="-3841.7"
         y1="-3502.3999"
         x2="-3842.3999"
         y2="-3482.3"
         id="AIgd8"
         gradientUnits="userSpaceOnUse"
         gradientTransform="matrix(0.5318,4e-4,-4e-4,0.5318,2070.8,1900.1)"><stop
           id="stop281"
           style="stop-color:#4f0c81;stop-opacity:1"
           offset="0" /><stop
           id="stop283"
           style="stop-color:#690c73;stop-opacity:1"
           offset="0.0701" /><stop
           id="stop285"
           style="stop-color:#9a0a5b;stop-opacity:1"
           offset="0.20900001" /><stop
           id="stop287"
           style="stop-color:#c20748;stop-opacity:1"
           offset="0.33680001" /><stop
           id="stop289"
           style="stop-color:#e0053a;stop-opacity:1"
           offset="0.45120001" /><stop
           id="stop291"
           style="stop-color:#f20032;stop-opacity:1"
           offset="0.54809999" /><stop
           id="stop293"
           style="stop-color:#fa002f;stop-opacity:1"
           offset="0.61580002" /><stop
           id="stop295"
           style="stop-color:#f7ee5f;stop-opacity:1"
           offset="1" /></linearGradient></defs><path
       d="m 21.991,45.476 1.033,0.192 0.998,0.076 1.033,-0.113 1.034,-0.191 1.034,-0.342 0.994,-0.423 0.996,-0.497 0.998,-0.611 0.919,-0.648 0.918,-0.69 0.881,-0.726 0.845,-0.766 0.806,-0.804 0.766,-0.765 0.69,-0.768 0.651,-0.766 h -0.461 l -0.574,0.04 -0.611,0.036 H 34.29 l -0.613,0.073 -0.613,0.041 -0.496,0.039 -0.423,0.075 v 0.077 l -0.154,0.189 -0.381,0.347 -0.537,0.42 -0.652,0.535 -0.764,0.613 -0.845,0.652 -0.882,0.647 -0.92,0.687 -0.918,0.691 -0.881,0.65 -0.846,0.574 -0.765,0.539 -0.69,0.421 -0.537,0.305 -0.382,0.191 z"
       id="path297"
       style="fill:url(#AIgd8)" /><path
       d="m 16.782,45.434 0.612,0.612 0.806,0.267 0.996,10e-4 1.11,-0.266 1.227,-0.46 1.262,-0.646 1.341,-0.768 1.305,-0.841 1.302,-0.919 1.227,-0.916 1.147,-0.879 0.999,-0.844 0.881,-0.688 0.65,-0.574 0.423,-0.381 0.192,-0.154 -0.498,0.038 -0.538,0.036 -0.574,0.037 -0.572,0.041 -0.614,0.072 -0.614,0.039 -0.611,0.04 -0.652,0.038 -0.688,0.419 -0.688,0.422 -0.693,0.456 -0.649,0.425 -0.689,0.456 -0.653,0.498 -0.688,0.459 -0.653,0.459 -0.69,0.496 -0.65,0.461 -0.688,0.459 -0.651,0.458 -0.688,0.421 -0.691,0.422 -0.651,0.419 -0.69,0.384 z"
       id="path299"
       style="fill:url(#linearGradient3370)" /><defs
       id="defs301"><linearGradient
         x1="-3872.2"
         y1="-3504"
         x2="-3872.3999"
         y2="-3493.2"
         id="AIgd10"
         gradientUnits="userSpaceOnUse"
         gradientTransform="matrix(0.5318,4e-4,-4e-4,0.5318,2070.8,1900.1)"><stop
           id="stop304"
           style="stop-color:#f7ee5f;stop-opacity:1"
           offset="0" /><stop
           id="stop306"
           style="stop-color:#f5d65d;stop-opacity:1"
           offset="0.186" /><stop
           id="stop308"
           style="stop-color:#f4c35b;stop-opacity:1"
           offset="0.38249999" /><stop
           id="stop310"
           style="stop-color:#f4bc5a;stop-opacity:1"
           offset="0.51980001" /><stop
           id="stop312"
           style="stop-color:#f5da5d;stop-opacity:1"
           offset="0.7809" /><stop
           id="stop314"
           style="stop-color:#f7ee5f;stop-opacity:1"
           offset="1" /></linearGradient></defs><path
       d="m 12.953,45.507 0.652,0.229 0.649,0.115 0.65,0.037 0.653,-0.11 0.65,-0.194 0.689,-0.265 0.727,-0.383 0.768,-0.46 0.843,-0.535 0.881,-0.612 0.959,-0.688 1.072,-0.728 1.187,-0.803 1.265,-0.881 1.379,-0.918 1.534,-0.957 -0.653,0.039 -0.727,0.039 -0.65,-0.001 -0.65,0.038 -0.574,0.037 -0.459,0.038 -0.307,0.039 -0.116,0.036 -0.077,0.115 -0.229,0.23 -0.346,0.307 -0.458,0.42 -0.575,0.499 -0.653,0.577 -0.689,0.571 -0.805,0.613 -0.805,0.611 -0.843,0.612 -0.843,0.534 -0.882,0.537 -0.842,0.457 -0.842,0.383 -0.805,0.267 -0.729,0.154 z"
       id="path316"
       style="fill:url(#linearGradient3372)" /><defs
       id="defs318"><linearGradient
         x1="-3878.1001"
         y1="-3508.3999"
         x2="-3874.5"
         y2="-3484.8999"
         id="AIgd11"
         gradientUnits="userSpaceOnUse"
         gradientTransform="matrix(0.5318,4e-4,-4e-4,0.5318,2070.8,1900.1)"><stop
           id="stop321"
           style="stop-color:#f7ee5f;stop-opacity:1"
           offset="0" /><stop
           id="stop323"
           style="stop-color:#f5d65d;stop-opacity:1"
           offset="0.186" /><stop
           id="stop325"
           style="stop-color:#f4c35b;stop-opacity:1"
           offset="0.38249999" /><stop
           id="stop327"
           style="stop-color:#f4bc5a;stop-opacity:1"
           offset="0.51980001" /><stop
           id="stop329"
           style="stop-color:#f5da5d;stop-opacity:1"
           offset="0.7809" /><stop
           id="stop331"
           style="stop-color:#f7ee5f;stop-opacity:1"
           offset="1" /></linearGradient></defs><path
       d="m 10.158,45.084 0.879,0.344 0.958,0.152 0.998,-0.072 1.033,-0.268 1.072,-0.383 1.033,-0.498 1.074,-0.608 0.996,-0.69 0.958,-0.688 0.92,-0.728 0.843,-0.688 0.728,-0.691 0.653,-0.572 0.495,-0.499 0.383,-0.341 0.232,-0.232 -0.613,0.038 -0.577,0.04 -0.571,0.037 -0.575,0.074 -0.535,0.041 -0.577,0.037 -0.61,0.074 -0.613,0.038 -0.459,0.421 -0.501,0.42 -0.458,0.421 -0.499,0.46 -0.498,0.498 -0.497,0.459 -0.536,0.459 -0.538,0.458 -0.536,0.423 -0.534,0.421 -0.577,0.381 -0.534,0.343 -0.614,0.309 -0.574,0.266 -0.613,0.193 -0.613,0.152 z"
       id="path333"
       style="fill:url(#linearGradient3374)" /><path
       d="m 6.791,44.01 0.765,0.535 0.763,0.345 0.767,0.154 0.767,0.039 0.768,-0.151 0.766,-0.232 0.766,-0.343 0.765,-0.458 0.729,-0.498 0.766,-0.611 0.729,-0.613 0.729,-0.65 0.727,-0.648 0.69,-0.69 0.689,-0.649 0.69,-0.615 -0.422,0.041 -0.46,0.076 -0.497,0.037 -0.535,0.039 -0.575,0.074 -0.612,0.039 -0.652,0.074 -0.612,0.037 -0.192,0.461 -0.27,0.457 -0.271,0.422 -0.346,0.422 -0.381,0.383 -0.424,0.383 -0.42,0.381 -0.496,0.306 -0.5,0.308 -0.537,0.268 -0.573,0.268 -0.576,0.189 -0.612,0.154 -0.61,0.15 -0.654,0.077 -0.649,0.039 z"
       id="path335"
       style="fill:url(#linearGradient3376)" /><path
       d="m 3.763,43.434 0.652,0.266 0.69,0.193 0.726,0.115 0.806,10e-4 0.767,-0.038 0.842,-0.115 0.805,-0.229 0.803,-0.229 0.768,-0.344 0.729,-0.384 0.65,-0.421 0.614,-0.495 0.536,-0.538 0.46,-0.572 0.345,-0.651 0.23,-0.652 -0.46,0.04 -0.46,0.037 -0.497,0.076 -0.5,0.038 -0.495,0.038 -0.537,0.037 -0.574,0.039 -0.652,0.036 -0.271,0.385 -0.307,0.384 -0.306,0.345 -0.306,0.306 -0.307,0.306 -0.348,0.229 -0.343,0.27 -0.347,0.229 -0.381,0.191 -0.422,0.19 -0.421,0.19 -0.456,0.153 -0.462,0.152 -0.495,0.152 -0.537,0.116 -0.539,0.154 z"
       id="path337"
       style="fill:url(#linearGradient3378)" /><path
       d="m 2.193,42.896 0.23,0.229 0.347,0.152 0.42,0.078 H 3.65 L 4.186,43.317 4.759,43.205 5.372,43.012 5.984,42.823 6.597,42.553 7.211,42.246 7.823,41.904 8.36,41.519 8.897,41.099 9.355,40.64 9.7,40.18 10.007,39.682 9.664,39.723 9.356,39.76 8.973,39.798 8.63,39.836 8.286,39.875 7.979,39.911 7.711,39.912 7.442,39.911 v 0.153 L 7.1,40.37 6.524,40.792 5.757,41.29 4.84,41.786 3.918,42.285 2.999,42.666 2.193,42.896 z"
       id="path339"
       style="fill:url(#linearGradient3380)" /><path
       d="m 1.084,41.822 0.078,0.536 0.192,0.344 0.305,0.155 0.42,0.076 0.499,-0.075 0.574,-0.192 0.573,-0.229 0.614,-0.306 0.613,-0.346 0.574,-0.381 0.575,-0.381 0.461,-0.347 0.42,-0.307 0.307,-0.229 0.191,-0.152 0.038,-0.076 -2.986,0.341 -0.229,0.152 -0.386,0.192 -0.458,0.23 -0.5,0.229 -0.535,0.269 -0.497,0.189 -0.461,0.192 -0.384,0.114 z"
       id="path341"
       style="fill:url(#linearGradient3382)" /><defs
       id="defs343"><linearGradient
         x1="-3892.6001"
         y1="-3497"
         x2="-3892.7"
         y2="-3490.1001"
         id="AIgd16"
         gradientUnits="userSpaceOnUse"
         gradientTransform="matrix(0.5318,4e-4,-4e-4,0.5318,2070.8,1900.1)"><stop
           id="stop346"
           style="stop-color:#f7ee5f;stop-opacity:1"
           offset="0" /><stop
           id="stop348"
           style="stop-color:#f5d65d;stop-opacity:1"
           offset="0.186" /><stop
           id="stop350"
           style="stop-color:#f4c35b;stop-opacity:1"
           offset="0.38249999" /><stop
           id="stop352"
           style="stop-color:#f4bc5a;stop-opacity:1"
           offset="0.51980001" /><stop
           id="stop354"
           style="stop-color:#f5da5d;stop-opacity:1"
           offset="0.7809" /><stop
           id="stop356"
           style="stop-color:#f7ee5f;stop-opacity:1"
           offset="1" /></linearGradient></defs><path
       d="m 4.533,40.253 -0.651,0.039 -0.574,0.039 -0.536,0.036 -0.498,0.037 -0.46,0.04 -0.497,0.036 -0.498,0.077 -0.577,0.114 0.117,0.729 0.343,0.345 0.537,0.001 0.689,-0.19 0.689,-0.347 0.729,-0.382 0.651,-0.345 0.536,-0.229 z"
       id="path358"
       style="fill:url(#AIgd16)" /><path
       d="m 4.419,39.874 -0.653,0.112 -0.573,0.076 -0.497,0.114 -0.5,0.075 -0.458,0.114 -0.459,0.115 -0.537,0.116 -0.575,0.154 -0.038,-0.844 0.345,-0.536 0.537,-0.192 0.727,-0.034 0.766,0.151 0.766,0.193 0.651,0.23 0.499,0.154 z"
       id="path360"
       style="fill:url(#linearGradient3384)" /><defs
       id="defs362"><linearGradient
         x1="-3716.8"
         y1="-3522.2"
         x2="-3726.8"
         y2="-3555.2"
         id="AIgd18"
         gradientUnits="userSpaceOnUse"
         gradientTransform="matrix(0.5318,4e-4,-4e-4,0.5318,2070.8,1900.1)"><stop
           id="stop365"
           style="stop-color:#4f0c81;stop-opacity:1"
           offset="0" /><stop
           id="stop367"
           style="stop-color:#690c73;stop-opacity:1"
           offset="0.0701" /><stop
           id="stop369"
           style="stop-color:#9a0a5b;stop-opacity:1"
           offset="0.20900001" /><stop
           id="stop371"
           style="stop-color:#c20748;stop-opacity:1"
           offset="0.33680001" /><stop
           id="stop373"
           style="stop-color:#e0053a;stop-opacity:1"
           offset="0.45120001" /><stop
           id="stop375"
           style="stop-color:#f20032;stop-opacity:1"
           offset="0.54809999" /><stop
           id="stop377"
           style="stop-color:#fa002f;stop-opacity:1"
           offset="0.61580002" /><stop
           id="stop379"
           style="stop-color:#f7ee5f;stop-opacity:1"
           offset="1" /></linearGradient></defs><path
       d="m 44.258,24.317 1.684,-0.651 1.611,-0.419 1.491,-0.113 1.417,0.076 1.379,0.309 1.262,0.459 1.227,0.652 1.187,0.729 1.149,0.845 1.11,0.919 1.106,0.959 1.074,0.996 1.071,0.957 1.07,0.921 1.073,0.882 1.109,0.807 -0.384,0.073 -0.421,0.038 -0.421,0.039 -0.383,0.076 -0.423,0.039 -0.421,0.038 -0.459,0.036 -0.421,0.039 -0.422,0.035 -0.461,0.041 -0.458,0.076 -0.422,0.037 -0.461,0.04 -0.457,0.074 -0.498,0.037 -0.461,0.077 -0.382,-0.534 -0.495,-0.653 -0.576,-0.766 -0.688,-0.768 -0.727,-0.843 -0.805,-0.843 -0.879,-0.844 -0.881,-0.806 -0.959,-0.766 -0.953,-0.688 -0.957,-0.615 -0.997,-0.497 -0.957,-0.385 -0.958,-0.23 -0.956,-0.039 -0.88,0.152 z"
       id="path381"
       style="fill:url(#linearGradient3386)" /><defs
       id="defs383"><linearGradient
         x1="-3818.3"
         y1="-3506.2"
         x2="-3836.3"
         y2="-3532.3999"
         id="AIgd19"
         gradientUnits="userSpaceOnUse"
         gradientTransform="matrix(0.5318,4e-4,-4e-4,0.5318,2070.8,1900.1)"><stop
           id="stop386"
           style="stop-color:#4f0c81;stop-opacity:1"
           offset="0" /><stop
           id="stop388"
           style="stop-color:#690c73;stop-opacity:1"
           offset="0.0701" /><stop
           id="stop390"
           style="stop-color:#9a0a5b;stop-opacity:1"
           offset="0.20900001" /><stop
           id="stop392"
           style="stop-color:#c20748;stop-opacity:1"
           offset="0.33680001" /><stop
           id="stop394"
           style="stop-color:#e0053a;stop-opacity:1"
           offset="0.45120001" /><stop
           id="stop396"
           style="stop-color:#f20032;stop-opacity:1"
           offset="0.54809999" /><stop
           id="stop398"
           style="stop-color:#fa002f;stop-opacity:1"
           offset="0.61580002" /><stop
           id="stop400"
           style="stop-color:#f7ee5f;stop-opacity:1"
           offset="1" /></linearGradient></defs><path
       d="m 41.383,24.964 0.96,-0.345 0.92,-0.227 0.878,-0.152 0.923,-0.077 0.878,0.077 0.919,0.192 0.88,0.268 0.919,0.423 0.956,0.537 0.959,0.691 0.995,0.803 1.033,0.96 1.108,1.11 1.11,1.266 1.186,1.418 1.264,1.57 -0.69,0.039 -0.611,0.072 -0.576,0.039 -0.534,0.076 -0.537,0.076 -0.573,0.076 -0.653,0.113 -0.765,0.117 -0.689,-0.574 -0.65,-0.613 -0.689,-0.653 -0.612,-0.653 -0.649,-0.649 -0.649,-0.65 L 47.781,29.641 47.13,28.99 46.479,28.378 45.791,27.804 45.14,27.228 44.452,26.654 43.725,26.156 42.958,25.733 42.192,25.312 41.387,24.965 z"
       id="path402"
       style="fill:url(#linearGradient3388)" /><path
       d="m 38.167,25.805 0.727,-0.611 0.808,-0.307 0.88,-0.074 0.879,0.191 0.958,0.383 0.956,0.538 0.995,0.688 0.996,0.805 0.996,0.881 0.993,0.921 0.956,0.921 0.92,0.958 0.841,0.88 0.84,0.805 0.729,0.691 0.69,0.574 -4.176,0.496 L 47.619,33.932 47.083,33.317 46.585,32.704 46.052,32.093 45.515,31.48 44.981,30.829 44.408,30.215 43.873,29.639 43.26,29.065 42.648,28.492 41.996,27.954 41.308,27.456 40.58,26.959 39.814,26.536 39.01,26.153 38.167,25.807 z"
       id="path404"
       style="fill:url(#linearGradient3390)" /><path
       d="m 31.886,28.481 1.148,-1.111 1.111,-0.802 1.073,-0.534 1.072,-0.307 1.072,-0.037 1.034,0.154 1.033,0.385 0.996,0.498 0.994,0.689 0.955,0.804 0.996,0.921 0.919,0.996 0.957,1.035 0.917,1.111 0.918,1.111 0.919,1.11 -0.729,0.04 -0.611,0.035 -0.498,0.039 -0.461,0.076 -0.458,0.076 -0.499,0.075 -0.571,0.078 -0.692,0.112 -0.803,-1.034 -0.766,-0.919 -0.803,-0.844 -0.766,-0.728 -0.802,-0.612 -0.766,-0.538 -0.728,-0.461 -0.768,-0.382 -0.728,-0.309 -0.688,-0.229 -0.728,-0.192 -0.689,-0.152 -0.648,-0.08 -0.653,-0.074 h -0.649 l -0.612,-0.002 z"
       id="path406"
       style="fill:url(#linearGradient3392)" /><path
       d="m 27.402,29.512 1.267,-0.461 1.187,-0.344 1.187,-0.189 1.109,-0.077 1.111,0.001 1.071,0.155 1.035,0.231 0.996,0.347 0.995,0.419 0.919,0.537 0.957,0.613 0.878,0.689 0.882,0.768 0.84,0.842 0.806,0.922 0.803,0.996 -0.803,0.115 -0.919,0.111 -0.921,0.115 -0.921,0.115 -0.842,0.113 -0.649,0.08 -0.499,0.037 L 37.7,35.645 37.625,35.57 37.433,35.417 37.164,35.149 36.821,34.803 36.398,34.383 35.903,33.959 35.328,33.463 34.678,32.925 33.95,32.426 33.185,31.89 32.341,31.39 31.423,30.895 30.503,30.471 29.51,30.088 28.476,29.74 27.403,29.511 z"
       id="path408"
       style="fill:url(#linearGradient3394)" /><path
       d="m 21.735,30.196 1.034,-0.418 1.035,-0.307 1.108,-0.115 1.073,10e-4 1.111,0.118 1.108,0.229 1.072,0.346 1.111,0.422 1.033,0.498 1.033,0.537 0.995,0.651 0.994,0.651 0.882,0.693 0.881,0.727 0.802,0.728 0.726,0.729 -0.495,0.037 -0.612,0.076 -0.689,0.075 -0.728,0.077 -0.729,0.075 -0.652,0.076 -0.573,0.037 h -0.422 l -10e-4,-0.077 -0.191,-0.191 -0.38,-0.268 -0.574,-0.385 -0.689,-0.42 -0.805,-0.5 -0.919,-0.537 -0.956,-0.533 -0.955,-0.54 L 26.367,32.15 25.369,31.654 24.453,31.197 23.607,30.81 22.845,30.503 22.229,30.31 21.734,30.195 z"
       id="path410"
       style="fill:url(#linearGradient3396)" /><path
       d="m 16.373,31.303 0.537,-0.842 0.805,-0.498 0.996,-0.188 h 1.147 l 1.264,0.268 1.379,0.422 1.455,0.576 1.415,0.651 1.455,0.729 1.339,0.766 1.265,0.73 1.149,0.727 0.954,0.615 0.729,0.459 0.496,0.342 0.23,0.117 -0.537,0.116 -0.61,0.077 -0.653,0.073 -0.689,0.038 -0.727,0.078 -0.729,0.074 -0.688,0.115 -0.689,0.115 -0.729,-0.346 -0.688,-0.348 -0.729,-0.381 -0.688,-0.385 -0.69,-0.346 -0.688,-0.383 -0.728,-0.384 -0.688,-0.382 -0.689,-0.35 -0.688,-0.382 -0.729,-0.343 -0.688,-0.307 -0.689,-0.348 -0.727,-0.305 -0.727,-0.311 -0.729,-0.266 z"
       id="path412"
       style="fill:url(#linearGradient3398)" /><path
       d="m 9.518,33.135 0.844,-0.611 0.956,-0.346 0.996,-0.149 1.07,10e-4 1.113,0.189 1.148,0.348 1.11,0.421 1.108,0.5 1.035,0.574 1.032,0.575 0.919,0.614 0.804,0.536 0.727,0.499 0.574,0.46 0.42,0.306 0.229,0.193 -0.612,0.074 -0.574,0.077 -0.495,0.076 -0.501,0.037 -0.536,0.037 -0.496,0.076 -0.576,0.078 -0.61,0.074 L 18.666,37.432 18.13,37.084 17.556,36.664 16.982,36.281 16.37,35.86 15.757,35.439 15.145,35.016 14.533,34.633 13.919,34.249 13.272,33.941 12.62,33.636 12.007,33.404 11.359,33.215 10.744,33.098 H 10.13 l -0.612,0.037 z"
       id="path414"
       style="fill:url(#linearGradient3400)" /><path
       d="m 12.044,32.029 0.653,-0.423 0.688,-0.305 0.652,-0.154 0.688,-0.074 0.689,0.037 0.728,0.152 0.807,0.27 0.838,0.308 0.921,0.423 0.959,0.459 1.07,0.576 1.147,0.614 1.265,0.65 1.378,0.692 1.49,0.765 1.648,0.768 -0.613,0.04 -0.689,0.073 -0.688,0.078 -0.691,0.112 -0.613,0.078 -0.457,0.078 -0.346,0.035 -0.153,-0.035 -0.075,-0.079 -0.27,-0.19 -0.345,-0.309 -0.459,-0.344 -0.573,-0.422 -0.689,-0.459 -0.729,-0.5 -0.803,-0.499 -0.879,-0.498 -0.882,-0.497 -0.955,-0.425 -0.957,-0.384 -0.959,-0.304 -0.957,-0.196 -0.92,-0.111 -0.919,-0.001 z"
       id="path416"
       style="fill:url(#linearGradient3402)" /><path
       d="m 6.451,35.086 0.691,-0.766 0.726,-0.574 0.729,-0.382 0.766,-0.229 0.767,-0.037 0.804,0.076 0.844,0.192 0.804,0.271 0.84,0.422 0.805,0.42 0.842,0.536 0.843,0.539 0.843,0.536 0.803,0.574 0.805,0.578 0.803,0.496 -0.459,0.076 -0.498,0.038 -0.574,0.116 -0.613,0.072 -0.649,0.079 -0.69,0.073 -0.65,0.078 -0.653,0.075 -0.229,-0.497 -0.269,-0.422 -0.305,-0.422 -0.384,-0.383 -0.383,-0.344 -0.419,-0.27 -0.5,-0.271 -0.497,-0.229 -0.536,-0.191 -0.572,-0.154 -0.58,-0.112 -0.612,-0.079 -0.65,-0.037 -0.652,0.001 -0.65,0.073 -0.689,0.078 z"
       id="path418"
       style="fill:url(#linearGradient3404)" /><path
       d="m 1.738,37.609 0.193,-0.306 0.306,-0.268 0.422,-0.228 0.459,-0.154 0.536,-0.114 0.612,-0.036 0.613,10e-4 0.689,0.037 0.65,0.114 0.689,0.155 0.652,0.229 0.61,0.269 0.576,0.308 0.534,0.383 0.422,0.422 0.381,0.461 L 9.739,38.958 9.32,39.034 8.9,39.11 8.477,39.184 8.095,39.221 7.787,39.262 H 7.482 L 7.329,39.184 6.948,38.954 6.296,38.647 5.53,38.304 4.649,37.995 3.654,37.726 2.697,37.572 1.738,37.608 z"
       id="path420"
       style="fill:url(#linearGradient3406)" /><path
       d="m 0.818,39.178 -0.036,-0.609 0.152,-0.461 0.271,-0.307 0.42,-0.191 0.497,-0.078 0.575,0.041 0.613,0.076 0.688,0.154 0.65,0.229 0.65,0.231 0.613,0.23 0.535,0.23 0.46,0.23 0.383,0.154 0.191,0.152 0.078,0.036 L 4.493,39.828 4.223,39.716 3.803,39.599 3.344,39.446 2.81,39.294 2.274,39.179 1.739,39.105 1.24,39.104 0.818,39.178 z"
       id="path422"
       style="fill:url(#linearGradient3408)" /><path
       d="m 3.349,36.616 0.612,-0.498 0.651,-0.383 0.729,-0.342 0.805,-0.231 0.806,-0.153 0.803,-0.11 0.844,10e-4 0.841,0.072 0.804,0.156 0.804,0.27 0.729,0.307 0.689,0.383 0.649,0.461 0.536,0.535 0.421,0.613 0.344,0.689 -0.499,0.039 -0.457,0.077 -0.5,0.036 -0.536,0.076 -0.535,0.078 -0.574,0.037 L 10.7,38.844 10.05,38.916 9.819,38.575 9.551,38.267 9.244,38 8.901,37.73 8.519,37.5 8.098,37.27 7.675,37.078 7.216,36.927 6.757,36.773 6.26,36.657 5.8,36.581 5.301,36.541 4.804,36.504 4.308,36.503 3.809,36.541 3.349,36.616 z"
       id="path424"
       style="fill:url(#linearGradient3410)" /><defs
       id="defs426"><linearGradient
         x1="-3644.5"
         y1="-3531.6001"
         x2="-3636.6001"
         y2="-3508.3999"
         id="AIgd31"
         gradientUnits="userSpaceOnUse"
         gradientTransform="matrix(0.5318,4e-4,-4e-4,0.5318,2070.8,1900.1)"><stop
           id="stop429"
           style="stop-color:#681083;stop-opacity:1"
           offset="0" /><stop
           id="stop431"
           style="stop-color:#681083;stop-opacity:1"
           offset="0.0006" /><stop
           id="stop433"
           style="stop-color:#8d0f6d;stop-opacity:1"
           offset="0.072" /><stop
           id="stop435"
           style="stop-color:#ad0d5a;stop-opacity:1"
           offset="0.1459" /><stop
           id="stop437"
           style="stop-color:#c80a4a;stop-opacity:1"
           offset="0.2229" /><stop
           id="stop439"
           style="stop-color:#de083e;stop-opacity:1"
           offset="0.30410001" /><stop
           id="stop441"
           style="stop-color:#ed0335;stop-opacity:1"
           offset="0.39129999" /><stop
           id="stop443"
           style="stop-color:#f60030;stop-opacity:1"
           offset="0.48840001" /><stop
           id="stop445"
           style="stop-color:#fa002f;stop-opacity:1"
           offset="0.61580002" /><stop
           id="stop447"
           style="stop-color:#f7ee5f;stop-opacity:1"
           offset="1" /></linearGradient></defs><path
       d="m 139.69,18.299 0.077,0.117 0.192,0.307 0.267,0.497 0.344,0.613 0.386,0.727 0.382,0.806 0.346,0.92 0.303,0.918 0.228,0.959 0.079,0.92 -0.05,0.917 -0.192,0.842 -0.422,0.768 -0.651,0.687 -0.919,0.535 -1.189,0.384 0.193,-0.578 0.117,-0.611 0.113,-0.611 0.076,-0.689 0.039,-0.689 V 25.31 l -0.037,-0.69 -0.037,-0.729 -0.076,-0.729 -0.074,-0.725 -0.116,-0.69 -0.152,-0.651 -0.113,-0.651 -0.154,-0.575 -0.188,-0.574 -0.155,-0.498 0.191,-0.075 0.154,-0.04 0.19,-0.076 0.156,-0.036 0.153,-0.077 0.15,-0.039 0.191,-0.078 0.19,-0.076 z"
       id="path449"
       style="fill:url(#linearGradient3412)" /><path
       d="m 138.39,18.835 0.534,2.108 0.382,1.914 0.189,1.646 0.037,1.455 -0.077,1.264 -0.23,1.072 -0.307,0.92 -0.347,0.764 -0.46,0.613 -0.497,0.496 -0.498,0.347 -0.495,0.267 -0.54,0.191 -0.459,0.076 -0.42,0.037 h -0.384 l 0.229,-0.613 0.229,-0.612 0.192,-0.688 0.154,-0.689 0.152,-0.767 0.118,-0.764 0.116,-0.767 0.075,-0.803 0.041,-0.806 0.001,-0.843 -0.041,-0.804 -0.073,-0.843 -0.114,-0.804 -0.155,-0.843 -0.188,-0.766 -0.229,-0.805 0.457,-0.154 0.463,-0.152 0.422,-0.152 0.418,-0.115 0.348,-0.113 0.381,-0.115 0.306,-0.076 0.27,-0.077 z"
       id="path451"
       style="fill:url(#linearGradient3414)" /><path
       d="m 135.28,19.792 0.231,0.765 0.227,0.959 0.155,1.073 0.072,1.186 0.041,1.303 -0.002,1.301 -0.116,1.301 -0.192,1.267 -0.271,1.187 -0.345,1.109 -0.499,0.957 -0.572,0.766 -0.731,0.574 -0.84,0.304 -0.96,0.04 -1.108,-0.307 0.422,-0.691 0.421,-0.727 0.347,-0.766 0.307,-0.727 0.229,-0.803 0.231,-0.768 0.152,-0.805 0.154,-0.805 0.077,-0.804 0.038,-0.841 v -0.805 l -0.073,-0.842 -0.076,-0.842 -0.152,-0.806 -0.152,-0.845 -0.229,-0.803 0.383,-0.152 0.458,-0.152 0.461,-0.153 0.46,-0.153 0.46,-0.151 0.382,-0.153 0.346,-0.117 0.267,-0.074 z"
       id="path453"
       style="fill:url(#linearGradient3416)" /><path
       d="m 125.55,35.674 1.036,0.08 0.997,-0.154 0.879,-0.381 0.805,-0.535 0.766,-0.73 0.652,-0.879 0.536,-0.994 0.499,-1.109 0.384,-1.188 0.309,-1.266 0.192,-1.3 0.078,-1.302 0.001,-1.301 -0.114,-1.303 -0.229,-1.265 -0.343,-1.188 -0.422,0.152 -0.425,0.154 -0.456,0.114 -0.463,0.152 -0.458,0.154 -0.497,0.153 -0.46,0.152 -0.497,0.152 v 0.804 l -0.001,0.879 -0.04,0.999 -0.039,1.033 -0.039,1.033 -0.038,1.072 -0.116,1.11 -0.113,1.032 -0.156,1.035 -0.17,0.961 -0.233,0.919 -0.268,0.806 -0.308,0.687 -0.384,0.577 -0.421,0.419 -0.461,0.267 z"
       id="path455"
       style="fill:url(#linearGradient3418)" /><defs
       id="defs457"><linearGradient
         x1="-3738.2"
         y1="-3453.3999"
         x2="-3733.1001"
         y2="-3424.1001"
         id="AIgd35"
         gradientUnits="userSpaceOnUse"
         gradientTransform="matrix(0.5318,4e-4,-4e-4,0.5318,2110.5,1859.4)"><stop
           id="stop460"
           style="stop-color:#681083;stop-opacity:1"
           offset="0" /><stop
           id="stop462"
           style="stop-color:#6f1182;stop-opacity:1"
           offset="0.0752" /><stop
           id="stop464"
           style="stop-color:#831380;stop-opacity:1"
           offset="0.1935" /><stop
           id="stop466"
           style="stop-color:#a3157b;stop-opacity:1"
           offset="0.33989999" /><stop
           id="stop468"
           style="stop-color:#d11975;stop-opacity:1"
           offset="0.50880003" /><stop
           id="stop470"
           style="stop-color:#f21b71;stop-opacity:1"
           offset="0.61580002" /><stop
           id="stop472"
           style="stop-color:#f7ee5f;stop-opacity:1"
           offset="1" /></linearGradient></defs><path
       d="m 128.28,22.083 -0.384,0.153 -0.383,0.114 -0.343,0.115 -0.386,0.077 -0.382,0.114 -0.347,0.113 -0.384,0.116 -0.38,0.153 -0.077,0.766 -0.041,0.84 -0.039,0.92 -0.038,0.958 -0.001,0.958 -0.001,1.031 -0.04,1.037 -0.039,0.994 -0.076,0.997 -0.115,0.994 -0.193,0.919 -0.191,0.844 -0.305,0.802 -0.346,0.727 -0.422,0.616 -0.536,0.496 1.108,-0.268 0.919,-0.383 0.767,-0.533 0.651,-0.614 0.537,-0.729 0.423,-0.839 0.306,-0.919 0.232,-0.959 0.156,-1.072 0.112,-1.11 0.039,-1.15 0.042,-1.225 0.037,-1.225 0.039,-1.264 10e-4,-1.264 0.078,-1.303 z"
       id="path474"
       style="fill:url(#AIgd35)" /><defs
       id="defs476"><linearGradient
         x1="-3716.3"
         y1="-3509.7"
         x2="-3713.7"
         y2="-3491.7"
         id="AIgd36"
         gradientUnits="userSpaceOnUse"
         gradientTransform="matrix(0.5318,4e-4,-4e-4,0.5318,2070.8,1900.1)"><stop
           id="stop479"
           style="stop-color:#681083;stop-opacity:1"
           offset="0" /><stop
           id="stop481"
           style="stop-color:#681083;stop-opacity:1"
           offset="0.0006" /><stop
           id="stop483"
           style="stop-color:#8d0f6d;stop-opacity:1"
           offset="0.072" /><stop
           id="stop485"
           style="stop-color:#ad0d5a;stop-opacity:1"
           offset="0.1459" /><stop
           id="stop487"
           style="stop-color:#c80a4a;stop-opacity:1"
           offset="0.2229" /><stop
           id="stop489"
           style="stop-color:#de083e;stop-opacity:1"
           offset="0.30410001" /><stop
           id="stop491"
           style="stop-color:#ed0335;stop-opacity:1"
           offset="0.39129999" /><stop
           id="stop493"
           style="stop-color:#f60030;stop-opacity:1"
           offset="0.48840001" /><stop
           id="stop495"
           style="stop-color:#fa002f;stop-opacity:1"
           offset="0.61580002" /><stop
           id="stop497"
           style="stop-color:#f7ee5f;stop-opacity:1"
           offset="1" /></linearGradient></defs><path
       d="m 118.12,38.426 1.531,-0.074 1.304,-0.305 1.07,-0.497 0.882,-0.651 0.689,-0.842 0.502,-0.958 0.419,-1.071 0.27,-1.188 0.154,-1.226 0.114,-1.261 0.041,-1.305 10e-4,-1.262 0.001,-1.305 0.001,-1.223 0.076,-1.15 0.078,-1.071 -0.421,0.114 -0.383,0.113 -0.343,0.117 -0.387,0.113 -0.382,0.113 -0.343,0.115 -0.384,0.077 -0.423,0.114 0.039,0.113 0.075,0.269 0.078,0.423 0.114,0.537 0.074,0.688 0.078,0.768 0.039,0.881 -0.04,0.996 -0.114,1.035 -0.195,1.145 -0.347,1.189 -0.42,1.225 -0.614,1.265 -0.766,1.339 -0.921,1.3 -1.15,1.339 z"
       id="path499"
       style="fill:url(#linearGradient3420)" /><path
       d="m 112.9,40.07 1.035,0.191 1.035,-0.073 0.995,-0.346 0.996,-0.537 0.956,-0.725 0.92,-0.881 0.844,-1.07 0.769,-1.188 0.649,-1.265 0.576,-1.378 0.462,-1.456 0.309,-1.489 0.192,-1.496 0.041,-1.531 -0.152,-1.454 -0.308,-1.456 -3.638,1.146 0.037,0.613 0.037,0.729 -0.038,0.801 -0.08,0.92 -0.112,0.958 -0.192,1.034 -0.192,1.072 -0.308,1.109 -0.347,1.109 -0.421,1.073 -0.461,1.071 -0.575,1.035 -0.612,0.995 -0.729,0.919 -0.805,0.841 -0.883,0.727 z"
       id="path501"
       style="fill:url(#linearGradient3422)" /><defs
       id="defs503"><linearGradient
         x1="-3716.5"
         y1="-3513"
         x2="-3712.3999"
         y2="-3473.3"
         id="AIgd38"
         gradientUnits="userSpaceOnUse"
         gradientTransform="matrix(0.5318,4e-4,-4e-4,0.5318,2070.8,1900.1)"><stop
           id="stop506"
           style="stop-color:#681083;stop-opacity:1"
           offset="0" /><stop
           id="stop508"
           style="stop-color:#681083;stop-opacity:1"
           offset="0.0006" /><stop
           id="stop510"
           style="stop-color:#8d0f6d;stop-opacity:1"
           offset="0.072" /><stop
           id="stop512"
           style="stop-color:#ad0d5a;stop-opacity:1"
           offset="0.1459" /><stop
           id="stop514"
           style="stop-color:#c80a4a;stop-opacity:1"
           offset="0.2229" /><stop
           id="stop516"
           style="stop-color:#de083e;stop-opacity:1"
           offset="0.30410001" /><stop
           id="stop518"
           style="stop-color:#ed0335;stop-opacity:1"
           offset="0.39129999" /><stop
           id="stop520"
           style="stop-color:#f60030;stop-opacity:1"
           offset="0.48840001" /><stop
           id="stop522"
           style="stop-color:#fa002f;stop-opacity:1"
           offset="0.61580002" /><stop
           id="stop524"
           style="stop-color:#f7ee5f;stop-opacity:1"
           offset="1" /></linearGradient></defs><path
       d="m 118.66,24.987 -0.573,0.189 -0.729,0.191 -0.807,0.268 -0.84,0.229 -0.806,0.27 -0.804,0.227 -0.689,0.191 -0.537,0.115 -0.076,0.881 -0.042,0.955 -0.075,0.959 -0.038,0.995 -0.117,0.995 -0.077,1.037 -0.115,0.994 -0.153,0.996 -0.19,0.956 -0.232,0.921 -0.309,0.916 -0.344,0.842 -0.422,0.807 -0.498,0.688 -0.536,0.65 -0.65,0.576 0.766,0.114 0.803,-0.038 0.804,-0.19 0.805,-0.343 0.804,-0.5 0.807,-0.612 0.768,-0.763 0.766,-0.958 0.689,-1.034 0.611,-1.227 0.578,-1.339 0.495,-1.528 0.388,-1.65 0.307,-1.758 0.194,-1.955 0.077,-2.066 z"
       id="path526"
       style="fill:url(#linearGradient3424)" /><path
       d="m 103.98,41.593 1.725,0.081 1.455,-0.154 1.265,-0.418 0.998,-0.653 0.841,-0.802 0.691,-0.958 0.497,-1.072 0.386,-1.224 0.308,-1.225 0.19,-1.343 0.116,-1.3 0.117,-1.302 0.038,-1.303 0.078,-1.188 0.075,-1.11 0.117,-0.995 -0.535,0.114 -0.463,0.115 -0.419,0.153 -0.418,0.112 -0.463,0.117 -0.422,0.111 -0.496,0.154 -0.576,0.151 -0.116,1.038 -0.112,0.992 -0.116,0.996 -0.156,0.955 -0.116,0.961 -0.153,0.918 -0.189,0.879 -0.194,0.881 -0.269,0.844 -0.308,0.841 -0.382,0.805 -0.422,0.806 -0.536,0.801 -0.576,0.767 -0.689,0.728 -0.77,0.726 z"
       id="path528"
       style="fill:url(#linearGradient3426)" /><path
       d="m 99.349,42.433 1.532,0.078 1.34,-0.192 1.188,-0.418 1.036,-0.65 0.88,-0.805 0.766,-0.957 0.615,-1.107 0.537,-1.188 0.458,-1.227 0.347,-1.3 0.269,-1.266 0.194,-1.299 0.19,-1.226 0.116,-1.15 0.116,-1.073 0.079,-0.919 -0.539,0.117 -0.459,0.112 -0.42,0.115 -0.423,0.077 -0.38,0.113 -0.425,0.074 -0.495,0.152 -0.576,0.115 -0.192,1.496 -0.229,1.417 -0.27,1.301 -0.269,1.226 -0.31,1.109 -0.345,1.071 -0.383,0.919 -0.384,0.883 -0.383,0.803 -0.425,0.727 -0.459,0.613 -0.422,0.573 -0.459,0.536 -0.461,0.42 -0.498,0.383 -0.459,0.345 z"
       id="path530"
       style="fill:url(#linearGradient3428)" /><defs
       id="defs532"><linearGradient
         x1="-3711.2"
         y1="-3514"
         x2="-3709.7"
         y2="-3493.5"
         id="AIgd41"
         gradientUnits="userSpaceOnUse"
         gradientTransform="matrix(0.5318,4e-4,-4e-4,0.5318,2070.8,1900.1)"><stop
           id="stop535"
           style="stop-color:#681083;stop-opacity:1"
           offset="0" /><stop
           id="stop537"
           style="stop-color:#681083;stop-opacity:1"
           offset="0.0006" /><stop
           id="stop539"
           style="stop-color:#8d0f6d;stop-opacity:1"
           offset="0.072" /><stop
           id="stop541"
           style="stop-color:#ad0d5a;stop-opacity:1"
           offset="0.1459" /><stop
           id="stop543"
           style="stop-color:#c80a4a;stop-opacity:1"
           offset="0.2229" /><stop
           id="stop545"
           style="stop-color:#de083e;stop-opacity:1"
           offset="0.30410001" /><stop
           id="stop547"
           style="stop-color:#ed0335;stop-opacity:1"
           offset="0.39129999" /><stop
           id="stop549"
           style="stop-color:#f60030;stop-opacity:1"
           offset="0.48840001" /><stop
           id="stop551"
           style="stop-color:#fa002f;stop-opacity:1"
           offset="0.61580002" /><stop
           id="stop553"
           style="stop-color:#f7ee5f;stop-opacity:1"
           offset="1" /></linearGradient></defs><path
       d="m 94.98,43.004 1.457,0.078 1.302,-0.189 1.151,-0.424 1.071,-0.611 0.881,-0.802 0.805,-0.919 0.69,-1.072 0.614,-1.146 0.535,-1.189 0.422,-1.263 0.347,-1.264 0.308,-1.262 0.271,-1.188 0.192,-1.149 0.152,-1.031 0.155,-0.922 -0.459,0.076 -0.46,0.116 -0.462,0.114 -0.459,0.115 -0.462,0.115 -0.458,0.112 -0.46,0.114 -0.497,0.117 -0.038,0.725 -0.116,0.805 -0.153,0.843 -0.269,0.918 -0.27,0.995 -0.382,0.957 -0.385,1.033 -0.422,0.998 -0.499,0.996 -0.537,0.957 -0.534,0.879 -0.577,0.84 -0.574,0.806 -0.614,0.69 -0.649,0.572 -0.617,0.459 z"
       id="path555"
       style="fill:url(#AIgd41)" /><defs
       id="defs557"><linearGradient
         x1="-3718.5"
         y1="-3510.1001"
         x2="-3716.7"
         y2="-3483"
         id="AIgd42"
         gradientUnits="userSpaceOnUse"
         gradientTransform="matrix(0.5318,4e-4,-4e-4,0.5318,2070.8,1900.1)"><stop
           id="stop560"
           style="stop-color:#681083;stop-opacity:1"
           offset="0" /><stop
           id="stop562"
           style="stop-color:#681083;stop-opacity:1"
           offset="0.0006" /><stop
           id="stop564"
           style="stop-color:#8d0f6d;stop-opacity:1"
           offset="0.072" /><stop
           id="stop566"
           style="stop-color:#ad0d5a;stop-opacity:1"
           offset="0.1459" /><stop
           id="stop568"
           style="stop-color:#c80a4a;stop-opacity:1"
           offset="0.2229" /><stop
           id="stop570"
           style="stop-color:#de083e;stop-opacity:1"
           offset="0.30410001" /><stop
           id="stop572"
           style="stop-color:#ed0335;stop-opacity:1"
           offset="0.39129999" /><stop
           id="stop574"
           style="stop-color:#f60030;stop-opacity:1"
           offset="0.48840001" /><stop
           id="stop576"
           style="stop-color:#fa002f;stop-opacity:1"
           offset="0.61580002" /><stop
           id="stop578"
           style="stop-color:#f7ee5f;stop-opacity:1"
           offset="1" /></linearGradient></defs><path
       d="m 90.197,43.881 1.49,0.193 1.38,-0.191 1.264,-0.496 1.15,-0.766 1.073,-0.955 0.921,-1.148 0.84,-1.301 0.77,-1.341 0.613,-1.415 0.537,-1.381 0.46,-1.302 0.384,-1.262 0.23,-1.074 0.192,-0.88 0.114,-0.65 0.001,-0.381 -0.573,0.111 -0.537,0.115 -0.535,0.152 -0.536,0.115 -0.536,0.152 -0.5,0.113 -0.497,0.115 -0.499,0.078 -0.191,0.651 -0.19,0.765 -0.229,0.879 -0.271,0.996 -0.308,1.035 -0.343,1.071 -0.384,1.069 -0.424,1.114 -0.461,1.07 -0.497,0.995 -0.537,0.959 -0.574,0.842 -0.653,0.725 -0.65,0.574 -0.728,0.422 -0.765,0.229 z"
       id="path580"
       style="fill:url(#linearGradient3430)" /><path
       d="m 86.712,43.688 1.377,0.307 1.223,0.001 1.113,-0.267 1.034,-0.535 0.882,-0.729 0.805,-0.881 0.727,-1.068 0.652,-1.15 0.539,-1.226 0.498,-1.261 0.384,-1.265 0.385,-1.227 0.307,-1.147 0.231,-1.035 0.23,-0.918 0.189,-0.727 -0.419,0.076 -0.423,0.038 -0.38,0.075 -0.347,0.076 -0.384,0.076 -0.346,0.078 -0.305,0.074 -0.345,0.041 -0.118,0.879 -0.189,0.919 -0.232,0.917 -0.228,0.883 -0.309,0.918 -0.347,0.881 -0.382,0.844 -0.461,0.842 -0.46,0.842 -0.537,0.804 -0.615,0.765 -0.61,0.688 -0.729,0.69 -0.727,0.611 -0.806,0.574 -0.879,0.535 z"
       id="path582"
       style="fill:url(#linearGradient3432)" /><path
       d="m 82.345,44.374 1.147,0.002 1.112,-0.115 1.07,-0.268 1.037,-0.384 0.956,-0.533 0.959,-0.65 0.842,-0.763 0.841,-0.842 0.73,-0.96 0.69,-1.032 0.614,-1.15 0.573,-1.186 0.461,-1.264 0.385,-1.34 0.347,-1.379 0.23,-1.414 -0.498,0.113 -0.499,0.076 -0.536,0.115 -0.496,0.074 -0.497,0.078 -0.459,0.112 -0.5,0.077 -0.459,0.115 -0.231,0.805 -0.191,0.842 -0.231,0.805 -0.194,0.803 -0.23,0.804 -0.228,0.804 -0.307,0.766 -0.346,0.804 -0.42,0.767 -0.463,0.803 -0.576,0.766 -0.688,0.766 -0.768,0.729 -0.918,0.765 -1.073,0.766 -1.188,0.726 z"
       id="path584"
       style="fill:url(#linearGradient3434)" /><path
       d="m 76.14,45.095 1.495,0.118 1.454,-0.076 1.34,-0.229 1.266,-0.382 1.187,-0.497 1.112,-0.649 1.033,-0.768 0.918,-0.917 0.844,-0.955 0.767,-1.073 0.693,-1.148 0.573,-1.222 0.496,-1.304 0.425,-1.34 0.307,-1.377 0.233,-1.381 -0.423,0.076 -0.46,0.117 -0.456,0.074 -0.461,0.075 -0.459,0.078 -0.5,0.114 -0.497,0.076 -0.5,0.115 -0.152,0.955 -0.23,0.957 -0.31,0.96 -0.383,0.917 -0.457,0.918 -0.502,0.918 -0.574,0.882 -0.648,0.843 -0.691,0.844 -0.767,0.762 -0.808,0.727 -0.879,0.689 -0.921,0.611 -0.995,0.575 -0.997,0.497 -1.072,0.419 z"
       id="path586"
       style="fill:url(#linearGradient3436)" /><path
       d="m 72.732,45.475 1.264,-0.075 1.226,-0.189 1.228,-0.306 1.186,-0.458 1.112,-0.536 1.109,-0.648 1.034,-0.729 0.958,-0.842 0.881,-0.917 0.843,-0.993 0.73,-1.076 0.65,-1.109 0.536,-1.184 0.46,-1.226 0.348,-1.267 0.229,-1.299 -0.419,0.074 -0.385,0.037 -0.346,0.039 -0.343,0.039 -0.346,0.037 -0.382,0.077 -0.456,0.076 -0.539,0.075 -0.537,1.112 -0.459,1.031 -0.46,0.997 -0.422,0.919 -0.46,0.881 -0.424,0.805 -0.461,0.764 -0.498,0.727 -0.537,0.729 -0.613,0.649 -0.688,0.69 -0.765,0.611 -0.884,0.65 -0.996,0.611 -1.108,0.612 -1.265,0.61 z"
       id="path588"
       style="fill:url(#linearGradient3438)" /><path
       d="m 66.604,45.855 1.877,0.077 1.763,-0.073 1.57,-0.267 1.455,-0.422 1.34,-0.572 1.187,-0.691 1.113,-0.801 0.993,-0.92 0.921,-0.993 0.844,-1.072 0.729,-1.109 0.688,-1.189 0.652,-1.184 0.577,-1.187 0.538,-1.227 0.496,-1.187 -0.343,0.036 -0.461,0.078 -0.573,0.076 -0.575,0.076 -0.613,0.115 -0.537,0.076 -0.456,0.076 -0.347,0.035 -0.46,1.074 -0.499,1.074 -0.577,0.994 -0.573,0.955 -0.652,0.881 -0.688,0.879 -0.729,0.804 -0.804,0.807 -0.804,0.727 -0.885,0.688 -0.917,0.688 -0.96,0.613 -0.995,0.572 -1.072,0.535 -1.072,0.496 -1.149,0.46 z"
       id="path590"
       style="fill:url(#linearGradient3440)" /><path
       d="M 62.966,46.387 64,46.35 l 1.071,-0.152 1.15,-0.269 1.186,-0.419 1.188,-0.495 1.189,-0.613 1.188,-0.726 1.187,-0.803 1.149,-0.918 1.111,-0.957 1.035,-1.07 0.999,-1.15 0.879,-1.188 0.804,-1.262 0.691,-1.34 0.576,-1.38 -0.575,0.079 -0.575,0.074 -0.611,0.037 -0.612,0.077 -0.536,0.037 -0.461,0.077 -0.382,0.076 -0.192,0.115 -0.69,0.535 -0.689,0.575 -0.729,0.688 -0.729,0.688 -0.727,0.766 -0.767,0.802 -0.767,0.844 -0.768,0.845 -0.766,0.879 -0.804,0.842 -0.805,0.842 -0.845,0.84 -0.842,0.843 -0.845,0.763 -0.838,0.768 -0.882,0.688 z"
       id="path592"
       style="fill:url(#linearGradient3442)" /><path
       d="m 57.375,46.383 0.997,0.654 1.032,0.268 1.034,10e-4 1.073,-0.268 1.071,-0.536 1.073,-0.729 1.111,-0.916 1.11,-1.033 1.112,-1.188 1.148,-1.225 1.189,-1.301 1.188,-1.299 1.188,-1.264 1.226,-1.264 1.228,-1.148 1.226,-1.031 h -0.425 l -0.494,0.074 -0.576,0.038 -0.573,0.116 -0.613,0.079 -0.612,0.113 -0.572,0.115 -0.5,0.075 -0.956,0.88 -0.957,0.88 -0.923,0.919 -0.919,0.919 -0.881,0.916 -0.883,0.921 -0.88,0.92 -0.845,0.84 -0.844,0.84 -0.842,0.768 -0.805,0.688 -0.804,0.613 -0.805,0.535 -0.767,0.459 -0.766,0.343 -0.767,0.229 z"
       id="path594"
       style="fill:url(#linearGradient3444)" /><path
       d="m 53.046,46.879 1.572,0.001 1.492,-0.151 1.342,-0.385 1.304,-0.494 1.187,-0.614 1.109,-0.765 1.075,-0.84 0.995,-0.92 0.997,-0.994 0.956,-1.033 0.921,-1.035 0.959,-1.07 0.959,-1.07 0.994,-1.034 1.035,-0.957 1.072,-0.918 -0.382,0.04 -0.458,0.037 -0.577,0.074 -0.572,0.041 -0.577,0.073 -0.459,0.038 -0.382,0.041 -0.229,-0.001 -0.651,0.151 -0.652,0.306 -0.649,0.423 -0.692,0.573 -0.689,0.687 -0.729,0.805 -0.766,0.844 -0.769,0.915 -0.88,0.958 -0.883,0.955 -0.997,0.996 -1.032,0.959 -1.111,0.955 -1.188,0.88 -1.264,0.802 -1.381,0.729 z"
       id="path596"
       style="fill:url(#linearGradient3446)" /><path
       d="m 138.27,15.35 v -0.153 l 0.04,-0.42 0.038,-0.649 0.04,-0.807 0.039,-0.957 -0.037,-1.033 -0.038,-1.072 -0.111,-1.111 -0.229,-1.033 -0.309,-0.996 -0.38,-0.882 -0.572,-0.728 -0.654,-0.537 -0.843,-0.307 -1.034,-0.039 -1.186,0.306 0.385,0.384 0.343,0.459 0.345,0.574 0.306,0.613 0.305,0.689 0.27,0.689 0.264,0.767 0.271,0.804 0.228,0.767 0.19,0.806 0.194,0.803 0.188,0.766 0.155,0.768 0.152,0.727 0.114,0.65 0.113,0.613 0.19,-0.037 0.154,-0.037 0.189,-0.078 0.155,-0.037 0.151,-0.079 0.155,-0.075 0.192,-0.037 0.226,-0.078 z"
       id="path598"
       style="fill:url(#linearGradient3448)" /><defs
       id="defs600"><linearGradient
         x1="-3690.8999"
         y1="-3526.3"
         x2="-3702.7"
         y2="-3558.3"
         id="AIgd52"
         gradientUnits="userSpaceOnUse"
         gradientTransform="matrix(0.5318,4e-4,-4e-4,0.5318,2070.8,1900.1)"><stop
           id="stop603"
           style="stop-color:#4f0c81;stop-opacity:1"
           offset="0" /><stop
           id="stop605"
           style="stop-color:#690c73;stop-opacity:1"
           offset="0.0701" /><stop
           id="stop607"
           style="stop-color:#9a0a5b;stop-opacity:1"
           offset="0.20900001" /><stop
           id="stop609"
           style="stop-color:#c20748;stop-opacity:1"
           offset="0.33680001" /><stop
           id="stop611"
           style="stop-color:#e0053a;stop-opacity:1"
           offset="0.45120001" /><stop
           id="stop613"
           style="stop-color:#f20032;stop-opacity:1"
           offset="0.54809999" /><stop
           id="stop615"
           style="stop-color:#fa002f;stop-opacity:1"
           offset="0.61580002" /><stop
           id="stop617"
           style="stop-color:#f7ee5f;stop-opacity:1"
           offset="1" /></linearGradient></defs><path
       d="m 136.86,15.925 -0.497,-2.489 -0.535,-2.108 -0.535,-1.801 -0.532,-1.492 -0.539,-1.188 -0.534,-0.958 -0.533,-0.689 -0.499,-0.497 -0.536,-0.347 -0.458,-0.153 -0.502,-0.039 -0.42,0.078 -0.419,0.152 -0.382,0.191 -0.348,0.229 -0.306,0.23 0.536,0.497 0.533,0.573 0.462,0.538 0.494,0.611 0.424,0.615 0.422,0.648 0.382,0.652 0.344,0.691 0.344,0.727 0.306,0.766 0.307,0.768 0.268,0.805 0.227,0.842 0.23,0.842 0.227,0.882 0.194,0.919 0.457,-0.077 0.345,-0.036 0.232,-0.077 0.153,-0.077 0.151,-0.037 0.156,-0.076 0.18,-0.04 0.229,-0.075 z"
       id="path619"
       style="fill:url(#linearGradient3450)" /><path
       d="m 134.94,16.651 -0.113,-0.918 -0.194,-1.035 -0.305,-1.15 -0.379,-1.226 -0.5,-1.264 -0.571,-1.227 -0.611,-1.187 -0.688,-1.111 -0.729,-0.996 -0.765,-0.843 -0.803,-0.65 -0.842,-0.425 -0.881,-0.152 -0.882,0.152 -0.842,0.499 -0.882,0.878 0.688,0.498 0.65,0.576 0.613,0.574 0.574,0.576 0.574,0.611 0.496,0.689 0.459,0.691 0.42,0.688 0.423,0.769 0.343,0.767 0.345,0.805 0.267,0.842 0.267,0.879 0.193,0.92 0.189,0.959 0.155,0.994 0.416,-0.114 0.461,-0.152 0.499,-0.153 0.498,-0.191 0.461,-0.189 0.421,-0.154 0.344,-0.151 0.23,-0.077 z"
       id="path621"
       style="fill:url(#linearGradient3452)" /><path
       d="m 120.02,6.607 0.919,-0.612 0.92,-0.344 0.957,-0.115 0.919,0.115 0.958,0.307 0.919,0.5 0.882,0.689 0.843,0.805 0.762,0.919 0.766,1.073 0.65,1.188 0.572,1.226 0.496,1.305 0.384,1.376 0.306,1.38 0.151,1.416 -0.46,0.115 -0.459,0.116 -0.46,0.15 -0.46,0.154 -0.497,0.191 -0.499,0.113 -0.457,0.154 -0.498,0.075 -0.346,-0.88 -0.305,-0.959 -0.383,-0.957 -0.348,-0.957 -0.379,-0.996 -0.419,-0.998 -0.423,-0.956 -0.421,-0.918 -0.456,-0.884 -0.499,-0.805 -0.533,-0.766 -0.539,-0.651 -0.609,-0.575 -0.615,-0.459 -0.648,-0.346 -0.69,-0.19 z"
       id="path623"
       style="fill:url(#linearGradient3454)" /><path
       d="m 115.8,7.75 1.455,-0.648 1.302,-0.344 1.149,-0.038 1.034,0.193 0.919,0.421 0.806,0.65 0.724,0.807 0.65,0.957 0.575,1.072 0.495,1.188 0.5,1.229 0.457,1.225 0.457,1.264 0.421,1.264 0.459,1.188 0.497,1.111 -0.421,0.037 -0.384,0.115 -0.383,0.113 -0.385,0.152 -0.381,0.118 -0.384,0.151 -0.421,0.114 -0.422,0.074 -0.038,-0.151 -0.038,-0.383 -0.114,-0.498 -0.114,-0.689 -0.189,-0.803 -0.27,-0.92 -0.306,-0.996 -0.42,-1.034 -0.494,-1.034 -0.574,-1.035 -0.728,-1.035 -0.803,-0.958 -0.96,-0.918 -1.07,-0.767 -1.228,-0.691 -1.375,-0.5 z"
       id="path625"
       style="fill:url(#linearGradient3456)" /><path
       d="m 110.37,8.552 0.882,-0.651 0.997,-0.42 1.069,-0.153 1.072,0.04 1.149,0.229 1.148,0.461 1.108,0.615 1.111,0.768 1.07,0.956 0.997,1.075 0.878,1.225 0.805,1.342 0.687,1.416 0.537,1.533 0.342,1.57 0.19,1.687 -3.945,1.029 -0.228,-0.649 -0.307,-0.77 -0.306,-0.803 -0.382,-0.881 -0.461,-0.92 -0.457,-0.956 -0.537,-0.961 -0.573,-0.956 -0.652,-0.957 -0.725,-0.92 -0.766,-0.842 -0.803,-0.808 -0.878,-0.728 -0.959,-0.613 -0.996,-0.537 -1.07,-0.421 z"
       id="path627"
       style="fill:url(#linearGradient3458)" /><path
       d="m 120.5,21.387 -0.572,0.115 -0.727,0.152 -0.729,0.23 -0.808,0.229 -0.764,0.267 -0.729,0.191 -0.649,0.189 -0.536,0.152 -0.382,-0.957 -0.421,-0.995 -0.422,-0.996 -0.42,-1.036 -0.421,-1.032 -0.458,-0.997 -0.498,-0.995 -0.497,-0.997 -0.533,-0.918 -0.573,-0.845 -0.614,-0.804 -0.651,-0.727 -0.65,-0.652 -0.728,-0.537 -0.804,-0.423 -0.804,-0.306 0.692,-0.459 0.764,-0.344 0.806,-0.23 0.88,-0.075 0.918,0.076 0.959,0.231 0.957,0.383 0.992,0.576 0.999,0.728 0.993,0.92 0.995,1.149 0.954,1.304 0.919,1.532 0.917,1.723 0.843,1.992 0.802,2.184 z"
       id="path629"
       style="fill:url(#linearGradient3460)" /><path
       d="m 101.29,11.34 1.571,-0.841 1.415,-0.498 1.304,-0.114 1.187,0.193 1.032,0.458 0.996,0.691 0.841,0.883 0.805,1.073 0.688,1.188 0.649,1.265 0.573,1.341 0.534,1.34 0.536,1.302 0.498,1.265 0.458,1.148 0.456,1.035 -0.534,0.076 -0.459,0.112 -0.422,0.079 -0.422,0.114 -0.421,0.114 -0.459,0.115 -0.498,0.076 -0.572,0.112 -0.5,-1.033 -0.458,-1.036 -0.46,-0.994 -0.458,-0.958 -0.459,-0.958 -0.495,-0.88 -0.5,-0.881 -0.495,-0.806 -0.575,-0.807 -0.61,-0.727 -0.612,-0.688 -0.688,-0.652 -0.769,-0.615 -0.801,-0.536 -0.92,-0.498 -0.956,-0.46 z"
       id="path631"
       style="fill:url(#linearGradient3462)" /><path
       d="m 96.537,12.715 1.419,-0.765 1.339,-0.383 1.265,-0.075 1.225,0.191 1.111,0.461 1.069,0.689 0.996,0.844 0.921,0.998 0.841,1.149 0.802,1.187 0.726,1.227 0.652,1.264 0.611,1.266 0.537,1.148 0.455,1.111 0.423,0.957 -0.574,0.113 -0.5,0.115 -0.46,0.113 -0.421,0.076 -0.458,0.115 -0.461,0.115 -0.536,0.076 -0.613,0.115 -0.688,-1.533 -0.688,-1.417 -0.646,-1.302 -0.651,-1.188 -0.614,-1.071 -0.573,-0.961 -0.61,-0.84 -0.574,-0.807 -0.612,-0.651 -0.613,-0.575 -0.611,-0.498 -0.65,-0.421 -0.653,-0.308 -0.685,-0.269 -0.731,-0.155 -0.765,-0.113 z"
       id="path633"
       style="fill:url(#linearGradient3464)" /><path
       d="m 92.937,13.747 1.378,-0.65 1.307,-0.308 1.222,10e-4 1.19,0.233 1.07,0.458 1.033,0.654 0.956,0.844 0.92,0.957 0.802,1.072 0.766,1.148 0.726,1.188 0.613,1.188 0.609,1.189 0.5,1.15 0.456,1.033 0.421,0.959 -0.459,0.113 -0.42,0.113 -0.424,0.076 -0.383,0.116 -0.421,0.077 -0.42,0.075 -0.462,0.113 -0.496,0.077 -0.231,-0.765 -0.342,-0.845 -0.42,-0.842 -0.497,-0.919 -0.535,-0.919 -0.651,-0.921 -0.649,-0.92 -0.728,-0.92 -0.765,-0.841 -0.805,-0.846 -0.803,-0.766 -0.804,-0.652 -0.843,-0.613 -0.805,-0.498 -0.802,-0.383 -0.806,-0.23 z"
       id="path635"
       style="fill:url(#linearGradient3466)" /><path
       d="m 88.608,14.852 1.417,-0.762 1.38,-0.345 1.379,0.039 1.301,0.385 1.264,0.612 1.226,0.879 1.149,1.038 1.069,1.147 0.995,1.229 0.881,1.264 0.8,1.227 0.65,1.187 0.536,1.036 0.422,0.879 0.23,0.652 0.113,0.383 -0.574,0.115 -0.498,0.113 -0.498,0.115 -0.5,0.115 -0.496,0.115 -0.459,0.074 -0.499,0.077 -0.497,0.076 -0.344,-0.651 -0.384,-0.804 -0.458,-0.882 -0.537,-0.921 -0.571,-1.033 -0.614,-1.034 -0.646,-0.997 -0.691,-1.034 -0.727,-0.959 -0.767,-0.881 -0.802,-0.804 -0.803,-0.652 -0.844,-0.537 -0.844,-0.345 -0.878,-0.152 -0.882,0.035 z"
       id="path637"
       style="fill:url(#linearGradient3468)" /><path
       d="m 85.468,16.077 1.266,-0.842 1.224,-0.459 1.149,-0.113 1.149,0.19 1.071,0.461 1.033,0.692 0.958,0.842 0.915,1.035 0.844,1.113 0.805,1.184 0.727,1.229 0.687,1.225 0.574,1.15 0.535,1.073 0.421,0.918 0.383,0.766 -0.46,0.077 -0.382,0.114 -0.344,0.115 -0.308,0.113 -0.347,0.114 -0.305,0.115 -0.308,0.078 -0.343,0.073 -0.344,-0.955 -0.421,-0.958 -0.422,-0.921 -0.46,-0.918 -0.537,-0.919 -0.531,-0.844 -0.613,-0.844 -0.65,-0.805 -0.689,-0.767 -0.764,-0.688 -0.765,-0.614 -0.844,-0.574 -0.919,-0.5 -0.919,-0.421 -0.996,-0.308 -1.071,-0.229 z"
       id="path639"
       style="fill:url(#linearGradient3470)" /><path
       d="m 81.483,16.993 1.113,-0.422 1.109,-0.266 1.148,-0.077 1.074,0.078 1.109,0.231 1.032,0.345 1.034,0.536 1.034,0.652 0.956,0.768 0.918,0.92 0.881,0.996 0.842,1.112 0.802,1.226 0.689,1.34 0.688,1.418 0.571,1.491 -0.498,0.077 -0.495,0.076 -0.501,0.115 -0.497,0.153 -0.496,0.115 -0.498,0.153 -0.497,0.115 -0.5,0.074 -0.343,-0.842 -0.343,-0.882 -0.347,-0.843 -0.342,-0.883 -0.422,-0.842 -0.419,-0.805 -0.501,-0.842 -0.534,-0.767 -0.649,-0.729 -0.688,-0.728 -0.805,-0.652 -0.88,-0.613 -0.996,-0.537 -1.11,-0.498 -1.261,-0.424 -1.381,-0.344 z"
       id="path641"
       style="fill:url(#linearGradient3472)" /><path
       d="m 75.815,18.329 1.455,-0.609 1.457,-0.385 1.34,-0.189 1.34,-0.037 1.265,0.191 1.226,0.346 1.147,0.498 1.111,0.652 0.992,0.805 0.994,0.919 0.884,1.036 0.84,1.15 0.764,1.264 0.652,1.34 0.611,1.381 0.535,1.491 -0.459,0.077 -0.46,0.076 -0.536,0.078 -0.501,0.074 -0.533,0.078 -0.538,0.074 -0.535,0.076 -0.535,0.076 -0.269,-1.072 -0.383,-0.994 -0.42,-0.996 L 86.726,24.77 86.151,23.889 85.5,23.046 84.812,22.241 84.046,21.512 83.204,20.823 82.288,20.249 81.329,19.71 80.334,19.251 79.263,18.905 78.151,18.598 77.005,18.407 75.817,18.329 z"
       id="path643"
       style="fill:url(#linearGradient3474)" /><path
       d="m 73.021,18.632 1.302,-0.19 1.262,-0.113 1.263,0.039 1.228,0.154 1.224,0.307 1.15,0.385 1.109,0.498 1.073,0.613 0.995,0.729 0.954,0.844 0.844,0.919 0.803,1.034 0.688,1.149 0.611,1.226 0.499,1.341 0.38,1.419 -0.46,0.035 -0.383,0.038 -0.382,0.077 -0.384,0.077 -0.384,0.074 -0.382,0.078 -0.46,0.114 -0.496,0.076 -0.651,-1.111 -0.613,-1.073 -0.532,-0.958 -0.5,-0.956 -0.535,-0.844 -0.498,-0.804 -0.497,-0.767 -0.572,-0.69 L 80.065,21.701 79.377,21.126 78.609,20.591 77.767,20.093 76.772,19.668 75.7,19.286 74.436,18.94 73.021,18.632 z"
       id="path645"
       style="fill:url(#linearGradient3476)" /><path
       d="m 66.933,19.432 1.914,-0.457 1.8,-0.268 1.646,-0.075 1.531,0.154 1.417,0.307 1.302,0.461 1.187,0.573 1.074,0.77 1.03,0.842 0.917,0.96 0.844,1.034 0.802,1.112 0.728,1.147 0.688,1.227 0.612,1.226 0.611,1.265 -0.307,0.037 -0.42,0.037 -0.459,0.115 -0.501,0.076 -0.496,0.115 -0.462,0.114 -0.419,0.036 -0.346,0.039 -0.571,-1.148 -0.613,-1.035 -0.689,-0.996 -0.726,-0.918 -0.766,-0.883 -0.805,-0.806 -0.879,-0.726 -0.919,-0.69 -0.956,-0.616 -0.996,-0.573 -1.034,-0.498 -1.07,-0.498 -1.111,-0.423 -1.147,-0.383 -1.189,-0.346 -1.222,-0.309 z"
       id="path647"
       style="fill:url(#linearGradient3478)" /><path
       d="m 63.295,19.811 1.068,-0.189 1.113,-0.037 1.225,0.038 1.263,0.192 1.267,0.271 1.3,0.384 1.303,0.497 1.302,0.614 1.3,0.729 1.224,0.845 1.186,0.92 1.147,1.035 1.035,1.149 0.956,1.225 0.841,1.342 0.728,1.455 -0.537,0.039 -0.533,0.076 -0.538,0.115 -0.536,0.113 -0.459,0.113 -0.385,0.117 -0.306,0.036 -0.19,-0.037 -0.769,-0.46 -0.763,-0.537 -0.804,-0.613 -0.843,-0.689 -0.843,-0.729 -0.878,-0.768 -0.92,-0.768 -0.916,-0.802 -0.959,-0.806 -0.956,-0.807 -0.995,-0.803 -0.996,-0.729 -1.033,-0.729 -0.995,-0.652 -1.071,-0.613 -1.031,-0.537 z"
       id="path649"
       style="fill:url(#linearGradient3480)" /><path
       d="m 58.197,21.262 0.958,-0.955 1.034,-0.572 1.074,-0.23 1.109,0.077 1.148,0.308 1.225,0.575 1.227,0.769 1.3,0.879 1.301,1.074 1.341,1.11 1.34,1.19 1.34,1.188 1.377,1.188 1.377,1.112 1.376,1.035 1.381,0.92 -0.421,0.074 -0.499,0.037 -0.612,0.041 -0.613,0.037 -0.648,0.037 h -1.227 l -0.497,-0.002 -1.034,-0.766 -0.993,-0.804 -0.996,-0.808 -0.918,-0.842 -0.919,-0.805 -0.883,-0.807 -0.878,-0.805 -0.88,-0.767 -0.919,-0.688 -0.879,-0.651 -0.92,-0.575 -0.956,-0.5 L 61.417,21.914 60.383,21.569 59.31,21.377 58.2,21.26 z"
       id="path651"
       style="fill:url(#linearGradient3482)" /><defs
       id="defs653"><linearGradient
         x1="-3772.3999"
         y1="-3509.7"
         x2="-3797.3"
         y2="-3537.7"
         id="AIgd69"
         gradientUnits="userSpaceOnUse"
         gradientTransform="matrix(0.5318,4e-4,-4e-4,0.5318,2070.8,1900.1)"><stop
           id="stop656"
           style="stop-color:#4f0c81;stop-opacity:1"
           offset="0" /><stop
           id="stop658"
           style="stop-color:#690c73;stop-opacity:1"
           offset="0.0701" /><stop
           id="stop660"
           style="stop-color:#9a0a5b;stop-opacity:1"
           offset="0.20900001" /><stop
           id="stop662"
           style="stop-color:#c20748;stop-opacity:1"
           offset="0.33680001" /><stop
           id="stop664"
           style="stop-color:#e0053a;stop-opacity:1"
           offset="0.45120001" /><stop
           id="stop666"
           style="stop-color:#f20032;stop-opacity:1"
           offset="0.54809999" /><stop
           id="stop668"
           style="stop-color:#fa002f;stop-opacity:1"
           offset="0.61580002" /><stop
           id="stop670"
           style="stop-color:#f7ee5f;stop-opacity:1"
           offset="1" /></linearGradient></defs><path
       d="m 54.368,21.719 1.61,-0.381 1.493,-0.152 1.415,0.076 1.343,0.271 1.262,0.461 1.226,0.575 1.186,0.729 1.148,0.805 1.11,0.919 1.109,0.922 1.071,0.995 1.111,0.996 1.109,0.958 1.107,0.959 1.188,0.843 1.185,0.807 -0.38,0.037 -0.498,0.075 -0.576,0.078 -0.576,0.036 -0.572,0.079 -0.5,0.072 -0.38,0.041 -0.231,0.037 L 69.64,31.955 68.95,31.766 68.223,31.418 67.457,30.922 66.691,30.308 65.848,29.58 64.969,28.773 64.05,27.929 63.091,27.048 62.06,26.13 60.951,25.248 59.803,24.404 58.541,23.596 57.239,22.868 55.86,22.217 l -1.494,-0.5 z"
       id="path672"
       style="fill:url(#linearGradient3484)" /><path
       d="m 49.543,23.057 1.417,-0.805 1.495,-0.342 h 1.455 l 1.49,0.309 1.495,0.576 1.494,0.804 1.454,0.96 1.415,1.034 1.339,1.149 1.302,1.15 1.263,1.075 1.148,0.993 1.033,0.844 0.956,0.65 0.843,0.385 0.726,0.116 -0.61,0.077 -0.653,0.113 -0.727,0.113 -0.765,0.117 -0.767,0.074 -0.767,0.115 -0.728,0.038 -0.651,0.04 -1.07,-0.806 -0.958,-0.766 -0.879,-0.767 -0.84,-0.728 -0.767,-0.73 -0.726,-0.725 -0.767,-0.691 -0.726,-0.651 -0.729,-0.612 -0.804,-0.576 -0.841,-0.537 -0.919,-0.496 -0.996,-0.461 -1.071,-0.383 -1.226,-0.348 -1.34,-0.307 z"
       id="path674"
       style="fill:url(#linearGradient3486)" /><defs
       id="defs676"><linearGradient
         x1="-3498.5"
         y1="4158"
         x2="-3482.3999"
         y2="4209.6001"
         id="AIgd71"
         gradientUnits="userSpaceOnUse"
         gradientTransform="matrix(0.5318,4e-4,-4e-4,0.5318,-1982.9,3021.4)"><stop
           id="stop679"
           style="stop-color:#d8e7eb;stop-opacity:1"
           offset="0" /><stop
           id="stop681"
           style="stop-color:#c9d9de;stop-opacity:1"
           offset="0.0849" /><stop
           id="stop683"
           style="stop-color:#a5b8c2;stop-opacity:1"
           offset="0.2184" /><stop
           id="stop685"
           style="stop-color:#728896;stop-opacity:1"
           offset="0.3836" /><stop
           id="stop687"
           style="stop-color:#405766;stop-opacity:1"
           offset="0.55369997" /><stop
           id="stop689"
           style="stop-color:#667d8b;stop-opacity:1"
           offset="0.64170003" /><stop
           id="stop691"
           style="stop-color:#92a7b1;stop-opacity:1"
           offset="0.74199998" /><stop
           id="stop693"
           style="stop-color:#b7c8d0;stop-opacity:1"
           offset="0.83740002" /><stop
           id="stop695"
           style="stop-color:#cfdfe4;stop-opacity:1"
           offset="0.92570001" /><stop
           id="stop697"
           style="stop-color:#d8e7eb;stop-opacity:1"
           offset="1" /></linearGradient></defs><g
       id="g699"
       style="fill:url(#linearGradient3807)"><defs
         id="defs701"><linearGradient
           x1="-3704.8999"
           y1="-3493.8999"
           x2="-3688.8"
           y2="-3442.3"
           id="AIgd72"
           gradientUnits="userSpaceOnUse"
           gradientTransform="matrix(0.5318,4e-4,-4e-4,0.5318,2110.5,1859.4)"><stop
             id="stop704"
             style="stop-color:#d8e7eb;stop-opacity:1"
             offset="0" /><stop
             id="stop706"
             style="stop-color:#c9d9de;stop-opacity:1"
             offset="0.0849" /><stop
             id="stop708"
             style="stop-color:#a5b8c2;stop-opacity:1"
             offset="0.2184" /><stop
             id="stop710"
             style="stop-color:#728896;stop-opacity:1"
             offset="0.3836" /><stop
             id="stop712"
             style="stop-color:#405766;stop-opacity:1"
             offset="0.55369997" /><stop
             id="stop714"
             style="stop-color:#667d8b;stop-opacity:1"
             offset="0.64170003" /><stop
             id="stop716"
             style="stop-color:#92a7b1;stop-opacity:1"
             offset="0.74199998" /><stop
             id="stop718"
             style="stop-color:#b7c8d0;stop-opacity:1"
             offset="0.83740002" /><stop
             id="stop720"
             style="stop-color:#cfdfe4;stop-opacity:1"
             offset="0.92570001" /><stop
             id="stop722"
             style="stop-color:#d8e7eb;stop-opacity:1"
             offset="1" /></linearGradient></defs><path
         d="m 142.3,7.35 0.191,-0.383 0.153,-0.42 0.152,-0.423 0.113,-0.421 0.117,-0.459 0.115,-0.496 0.077,-0.459 0.042,-0.5 0.036,-0.459 0.035,-0.498 0.001,-0.499 -0.035,-0.46 -0.036,-0.459 -0.08,-0.457 -0.112,-0.461 -0.114,-0.42 0.611,0.804 0.459,0.882 0.345,0.842 0.189,0.88 0.076,0.919 v 0.92 l -0.116,0.918 -0.194,0.92 -0.228,0.918 -0.31,0.883 -0.343,0.879 -0.343,0.88 -0.385,0.843 -0.347,0.842 -0.346,0.765 -0.343,0.767 0.074,-0.152 0.037,-0.269 0.042,-0.266 v -0.345 l 0.037,-0.424 V 11.6 l 0.001,-0.496 0.038,-0.499 v -0.498 l 0.039,-0.534 0.04,-0.498 0.038,-0.461 0.078,-0.461 0.075,-0.42 0.116,-0.383 z"
         id="path724"
         style="fill:url(#linearGradient3488)" /><path
         d="m 153.97,23.252 -0.729,-0.422 -0.729,-0.462 -0.687,-0.421 -0.688,-0.422 -0.65,-0.383 -0.651,-0.422 -0.616,-0.385 -0.609,-0.42 -0.653,-0.384 -0.607,-0.384 -0.614,-0.422 -0.652,-0.382 -0.611,-0.386 -0.654,-0.342 -0.686,-0.386 -0.689,-0.382 0.61,0.61 0.613,0.616 0.613,0.611 0.612,0.576 0.65,0.611 0.651,0.536 0.65,0.539 0.688,0.497 0.651,0.461 0.689,0.383 0.651,0.346 0.688,0.269 0.688,0.229 0.688,0.115 0.691,0.037 0.691,-0.035 z"
         id="path726"
         style="fill:url(#linearGradient3490)" /><path
         d="m 148.28,7.928 -0.536,0.308 -0.5,0.345 -0.495,0.345 -0.461,0.344 -0.46,0.343 -0.419,0.383 -0.424,0.421 -0.423,0.383 -0.384,0.422 -0.384,0.422 -0.382,0.421 -0.345,0.457 -0.383,0.422 -0.346,0.459 -0.344,0.459 -0.346,0.459 0.153,-0.496 0.192,-0.499 0.191,-0.537 0.229,-0.534 0.231,-0.536 0.265,-0.499 0.31,-0.498 0.346,-0.495 0.382,-0.46 0.461,-0.381 0.498,-0.385 0.537,-0.344 0.612,-0.269 0.652,-0.229 0.765,-0.152 0.805,-0.076 z"
         id="path728"
         style="fill:url(#linearGradient3492)" /><path
         d="m 142.57,3.329 -0.153,0.767 -0.114,0.767 -0.154,0.766 -0.116,0.689 -0.076,0.727 -0.114,0.689 -0.079,0.689 -0.115,0.689 -0.08,0.688 -0.117,0.689 -0.074,0.651 -0.118,0.689 -0.116,0.689 -0.115,0.689 -0.15,0.689 -0.157,0.727 -0.076,-0.842 -0.113,-0.805 -0.077,-0.843 -0.076,-0.841 -0.037,-0.807 -0.038,-0.805 0.039,-0.805 0.039,-0.764 0.076,-0.767 0.116,-0.688 0.194,-0.689 0.229,-0.651 0.269,-0.573 0.384,-0.537 0.422,-0.46 0.497,-0.421 z"
         id="path730"
         style="fill:url(#linearGradient3494)" /><path
         d="m 146.67,2.071 0.692,0.648 0.416,0.729 0.189,0.766 0.04,0.805 -0.153,0.804 -0.307,0.843 -0.424,0.844 -0.498,0.841 -0.575,0.804 -0.611,0.805 -0.653,0.764 -0.65,0.689 -0.614,0.689 -0.534,0.572 -0.463,0.539 -0.383,0.418 0.077,-1.147 0.154,-0.995 0.191,-0.844 0.307,-0.764 0.306,-0.65 0.386,-0.574 0.382,-0.535 0.424,-0.501 0.383,-0.496 0.424,-0.495 0.382,-0.538 0.307,-0.613 0.307,-0.688 0.23,-0.766 0.194,-0.919 0.075,-1.032 z"
         id="path732"
         style="fill:url(#linearGradient3496)" /><path
         d="m 141.76,14.319 v -0.805 l -0.039,-0.765 -0.034,-0.765 -0.04,-0.768 -0.036,-0.729 -0.077,-0.727 -0.076,-0.727 -0.073,-0.691 -0.117,-0.688 -0.114,-0.728 -0.189,-0.689 -0.152,-0.689 -0.19,-0.688 -0.268,-0.689 -0.229,-0.689 -0.306,-0.689 1.111,1.073 0.918,1.034 0.649,0.959 0.457,0.92 0.309,0.879 0.151,0.805 0.037,0.806 -0.077,0.727 -0.195,0.689 -0.187,0.651 -0.27,0.613 -0.271,0.533 -0.23,0.537 -0.229,0.459 -0.152,0.459 -0.078,0.383 z"
         id="path734"
         style="fill:url(#linearGradient3498)" /><path
         d="m 152.98,16.97 -0.613,0.114 -0.614,0.116 -0.611,0.075 -0.613,0.075 -0.609,0.038 -0.616,0.037 h -1.188 l -0.612,-0.039 h -0.574 l -0.613,-0.077 -0.573,-0.038 -0.613,-0.04 -0.575,-0.075 -0.612,-0.079 -0.574,-0.075 0.498,0.229 0.498,0.192 0.535,0.231 0.537,0.19 0.574,0.193 0.576,0.151 0.61,0.156 0.61,0.076 0.612,0.039 h 0.651 l 0.651,-0.039 0.654,-0.15 0.651,-0.191 0.651,-0.27 0.648,-0.381 0.654,-0.46 z"
         id="path736"
         style="fill:url(#linearGradient3500)" /><path
         d="m 149.42,20.07 0.461,0.078 0.419,0.075 0.461,0.115 0.457,0.115 0.463,0.194 0.456,0.151 0.421,0.191 0.46,0.23 0.421,0.23 0.421,0.267 0.383,0.271 0.386,0.268 0.343,0.307 0.308,0.307 0.304,0.307 0.27,0.344 -0.269,-0.917 -0.422,-0.808 -0.494,-0.688 -0.615,-0.651 -0.688,-0.536 -0.768,-0.5 -0.85,-0.42 -0.882,-0.347 -0.919,-0.306 -0.919,-0.307 -0.955,-0.231 -0.958,-0.23 -0.957,-0.193 -0.919,-0.189 -0.843,-0.154 -0.842,-0.192 0.42,0.153 0.574,0.306 0.69,0.463 0.841,0.497 0.843,0.535 0.879,0.499 0.842,0.46 0.768,0.308 z"
         id="path738"
         style="fill:url(#linearGradient3502)" /><path
         d="m 151.17,26.926 0.345,-0.881 0.117,-0.844 -0.116,-0.842 -0.307,-0.766 -0.457,-0.729 -0.612,-0.727 -0.728,-0.69 -0.804,-0.614 -0.843,-0.613 -0.879,-0.536 -0.919,-0.538 -0.884,-0.459 -0.801,-0.42 -0.767,-0.387 -0.651,-0.344 -0.496,-0.309 0.532,1.113 0.538,0.919 0.573,0.728 0.536,0.652 0.574,0.498 0.574,0.459 0.574,0.346 0.574,0.346 0.571,0.346 0.577,0.382 0.572,0.384 0.536,0.46 0.537,0.573 0.535,0.691 0.497,0.806 0.498,0.995 z"
         id="path740"
         style="fill:url(#linearGradient3504)" /><path
         d="m 141.53,17.497 0.422,0.652 0.42,0.652 0.421,0.65 0.38,0.613 0.346,0.613 0.345,0.649 0.346,0.614 0.305,0.613 0.304,0.652 0.268,0.65 0.271,0.613 0.229,0.65 0.19,0.689 0.192,0.65 0.152,0.689 0.152,0.73 0.384,-1.455 0.191,-1.265 0.041,-1.149 -0.115,-0.994 -0.229,-0.844 -0.346,-0.766 -0.42,-0.652 -0.458,-0.537 -0.538,-0.499 -0.535,-0.421 -0.573,-0.346 -0.537,-0.306 -0.496,-0.306 -0.46,-0.268 -0.342,-0.307 -0.31,-0.271 z"
         id="path742"
         style="fill:url(#linearGradient3506)" /></g></g></svg>