<?xml version="1.0" encoding="UTF-8" standalone="no"?>
<!-- Created with Inkscape (http://www.inkscape.org/) -->

<svg
   xmlns:dc="http://purl.org/dc/elements/1.1/"
   xmlns:cc="http://creativecommons.org/ns#"
   xmlns:rdf="http://www.w3.org/1999/02/22-rdf-syntax-ns#"
   xmlns:svg="http://www.w3.org/2000/svg"
   xmlns="http://www.w3.org/2000/svg"
   version="1.1"
   width="185.265"
   height="61.676998"
   id="svg3605">
  <defs
     id="defs3607" />
  <metadata
     id="metadata3610">
    <rdf:RDF>
      <cc:Work
         rdf:about="">
        <dc:format>image/svg+xml</dc:format>
        <dc:type
           rdf:resource="http://purl.org/dc/dcmitype/StillImage" />
        <dc:title></dc:title>
      </cc:Work>
    </rdf:RDF>
  </metadata>
  <g
     transform="translate(-286.968,-494.43768)"
     id="layer1">
    <g
       transform="translate(201.848,329.86068)"
       id="g89">
      <path
         d="m 236.283,164.577 19.455,0 -29.968,50.5 c -1.711,2.815 -3.381,4.981 -5.009,6.499 -1.628,1.518 -3.132,2.622 -4.512,3.311 -1.38,0.691 -2.566,1.091 -3.56,1.201 -0.993,0.111 -1.685,0.166 -2.07,0.166 l -17.882,0 0,-43.628 16.723,0 0.083,29.968 26.74,-48.017 z"
         id="path91"
         style="fill:#c4282d" />
    </g>
    <g
       transform="translate(201.848,329.86068)"
       id="g123">
      <path
         d="m 112.576,215.739 c -1.287,1.009 -2.842,1.514 -4.666,1.514 l -16.194,0 c -1.842,0 -3.379,-0.496 -4.612,-1.487 -1.323,-1.027 -1.984,-2.293 -1.984,-3.798 l 0,-12.643 c 0,-1.469 0.661,-2.726 1.984,-3.771 1.287,-1.009 2.843,-1.514 4.666,-1.514 l 16.222,0 c 1.698,0 3.137,0.469 4.317,1.408 1.233,0.938 2.028,2.417 2.386,4.436 l -3.298,0 c -0.232,-0.974 -0.67,-1.656 -1.314,-2.045 -0.554,-0.336 -1.26,-0.504 -2.118,-0.504 l -16.195,0 c -0.966,0 -1.788,0.222 -2.467,0.664 -0.589,0.372 -0.885,0.814 -0.885,1.328 l 0,12.643 c 0,0.531 0.295,0.992 0.885,1.381 l -0.026,-0.026 c 0.661,0.443 1.475,0.664 2.44,0.664 l 16.195,0 c 0.84,0 1.59,-0.177 2.252,-0.531 0.787,-0.372 1.18,-0.876 1.18,-1.514 l 0,-4.648 -13.113,0 0,-3.267 16.383,0 0,7.941 c 0,1.468 -0.68,2.724 -2.038,3.769 z"
         id="path125" />
      <path
         d="m 147.191,205.779 c -1.233,0.992 -2.78,1.487 -4.639,1.487 l -19.547,0 0,9.986 -3.298,0 0,-17.928 c 0,-1.469 0.661,-2.726 1.984,-3.771 1.287,-1.009 2.842,-1.514 4.666,-1.514 l 16.195,0 c 1.805,0 3.343,0.505 4.612,1.514 1.341,1.045 2.011,2.302 2.011,3.771 l 0,2.656 c 0,1.506 -0.661,2.772 -1.984,3.799 z m -1.287,-6.454 c 0,-0.495 -0.304,-0.938 -0.912,-1.328 -0.68,-0.442 -1.493,-0.664 -2.44,-0.664 l -16.222,0 c -0.822,0 -1.564,0.168 -2.226,0.504 -0.733,0.337 -1.099,0.833 -1.099,1.487 l 0,4.676 19.547,0 c 0.947,0 1.76,-0.212 2.44,-0.638 0.607,-0.389 0.912,-0.85 0.912,-1.381 l 0,-2.656 z"
         id="path127" />
      <path
         d="m 183.737,212.074 c -0.268,1.576 -1.019,2.842 -2.252,3.798 -1.198,0.92 -2.646,1.381 -4.343,1.381 l -16.222,0 c -1.823,0 -3.37,-0.496 -4.639,-1.487 -1.34,-1.027 -2.011,-2.293 -2.011,-3.798 l 0,-17.901 3.352,0 0,17.901 c 0,0.531 0.295,0.992 0.885,1.381 l -0.026,-0.026 c 0.661,0.443 1.474,0.664 2.44,0.664 l 16.222,0 c 0.822,0 1.537,-0.177 2.145,-0.531 l -0.027,0 c 0.644,-0.389 1.081,-1.053 1.314,-1.992 l 2.627,0 0.535,0.61 z"
         id="path129" />
    </g>
    <g
       transform="translate(201.848,329.86068)"
       id="g131">
      <path
         d="m 270.385,211.954 c 0,1.505 -0.664,2.771 -1.992,3.798 -1.222,0.992 -2.745,1.487 -4.568,1.487 l -16.068,0 c -1.682,0 -3.107,-0.452 -4.276,-1.354 -1.257,-0.974 -2.054,-2.461 -2.391,-4.462 l 3.267,0 c 0.23,0.938 0.655,1.611 1.275,2.019 l -0.027,0 c 0.602,0.354 1.319,0.531 2.151,0.531 l 16.068,0 c 0.92,0 1.717,-0.213 2.391,-0.638 0.602,-0.389 0.903,-0.85 0.903,-1.381 l 0,-2.656 c 0,-0.495 -0.301,-0.938 -0.903,-1.328 -0.708,-0.46 -1.514,-0.691 -2.417,-0.691 l -8.552,0 0,-3.267 8.579,0 c 0.938,0 1.735,-0.221 2.391,-0.664 0.602,-0.389 0.903,-0.841 0.903,-1.354 l 0,-2.656 c 0,-0.496 -0.301,-0.938 -0.903,-1.328 -0.708,-0.46 -1.514,-0.69 -2.417,-0.69 l -16.042,0 c -0.814,0 -1.523,0.177 -2.125,0.531 l 0.026,0 c -0.637,0.372 -1.071,1.045 -1.301,2.019 l -3.267,0 c 0.319,-2.019 1.098,-3.488 2.337,-4.409 1.168,-0.938 2.611,-1.407 4.329,-1.407 l 16.068,0 c 1.788,0 3.311,0.496 4.568,1.487 1.328,1.045 1.992,2.311 1.992,3.798 0,1.292 -0.053,2.47 -0.159,3.532 -0.036,0.531 -0.212,1.019 -0.531,1.461 -0.142,0.195 -0.305,0.398 -0.491,0.611 -0.186,0.213 -0.412,0.443 -0.677,0.69 0.513,0.478 0.903,0.921 1.168,1.328 0.301,0.496 0.478,0.974 0.531,1.434 0.107,1.045 0.16,2.231 0.16,3.559 z"
         id="path133" />
    </g>
  </g>
</svg>
