<?xml version="1.0" encoding="UTF-8" standalone="no"?>
<!-- Created with Inkscape (http://www.inkscape.org/) -->

<svg
   xmlns:dc="http://purl.org/dc/elements/1.1/"
   xmlns:cc="http://creativecommons.org/ns#"
   xmlns:rdf="http://www.w3.org/1999/02/22-rdf-syntax-ns#"
   xmlns:svg="http://www.w3.org/2000/svg"
   xmlns="http://www.w3.org/2000/svg"
   version="1.1"
   width="212.53799"
   height="61.676998"
   id="svg3605">
  <defs
     id="defs3607" />
  <metadata
     id="metadata3610">
    <rdf:RDF>
      <cc:Work
         rdf:about="">
        <dc:format>image/svg+xml</dc:format>
        <dc:type
           rdf:resource="http://purl.org/dc/dcmitype/StillImage" />
        <dc:title></dc:title>
      </cc:Work>
    </rdf:RDF>
  </metadata>
  <g
     transform="translate(-265.71191,-545.41117)"
     id="layer1">
    <g
       transform="translate(-295.99609,380.83417)"
       id="g327">
      <path
         d="m 589.022,212.291 c -0.249,1.475 -0.944,2.66 -2.088,3.554 -1.11,0.862 -2.452,1.292 -4.026,1.292 l -15.037,0 c -1.689,0 -3.123,-0.464 -4.299,-1.392 -1.243,-0.961 -1.864,-2.146 -1.864,-3.554 l 0,-16.751 3.106,0 0,16.751 c 0,0.497 0.273,0.928 0.82,1.292 l -0.025,-0.025 c 0.613,0.414 1.367,0.621 2.262,0.621 l 15.037,0 c 0.762,0 1.425,-0.166 1.988,-0.497 l -0.025,0 c 0.597,-0.364 1.003,-0.985 1.219,-1.864 l 2.436,0 0.496,0.573 z"
         id="path329" />
      <path
         d="m 619.89,215.721 c -1.193,0.944 -2.635,1.417 -4.324,1.417 l -15.012,0 c -1.707,0 -3.132,-0.464 -4.275,-1.392 -1.227,-0.961 -1.839,-2.146 -1.839,-3.554 l 0,-11.831 c 0,-1.375 0.612,-2.551 1.839,-3.529 1.193,-0.944 2.635,-1.417 4.324,-1.417 l 15.037,0 c 1.574,0 2.908,0.439 4.001,1.317 1.144,0.878 1.881,2.262 2.212,4.15 l -3.057,0 c -0.216,-0.911 -0.621,-1.549 -1.218,-1.914 -0.514,-0.315 -1.168,-0.472 -1.964,-0.472 l -15.012,0 c -0.895,0 -1.656,0.207 -2.286,0.621 -0.547,0.348 -0.82,0.762 -0.82,1.243 l 0,11.831 c 0,0.497 0.273,0.928 0.82,1.292 l -0.024,-0.025 c 0.612,0.414 1.366,0.621 2.262,0.621 l 15.012,0 c 0.778,0 1.474,-0.166 2.087,-0.497 0.729,-0.348 1.094,-0.82 1.094,-1.417 l 0,-4.35 -12.153,0 0,-3.057 15.186,0 0,7.432 c -0.002,1.377 -0.632,2.553 -1.89,3.531 z"
         id="path331" />
      <path
         d="m 652.744,206.4 c -1.143,0.928 -2.576,1.392 -4.3,1.392 l -18.118,0 0,9.345 -3.057,0 0,-16.776 c 0,-1.375 0.612,-2.551 1.839,-3.529 1.193,-0.944 2.635,-1.417 4.324,-1.417 l 15.012,0 c 1.674,0 3.099,0.472 4.275,1.417 1.242,0.978 1.864,2.154 1.864,3.529 l 0,2.485 c 10e-4,1.409 -0.612,2.593 -1.839,3.554 z m -1.192,-6.039 c 0,-0.464 -0.282,-0.878 -0.846,-1.243 -0.63,-0.414 -1.383,-0.621 -2.262,-0.621 l -15.036,0 c -0.763,0 -1.45,0.157 -2.063,0.472 -0.68,0.315 -1.02,0.779 -1.02,1.392 l 0,4.375 18.118,0 c 0.879,0 1.632,-0.199 2.262,-0.597 0.563,-0.364 0.846,-0.795 0.846,-1.292 l 0,-2.486 10e-4,0 z"
         id="path333" />
      <path
         d="m 687.365,212.291 c -0.249,1.475 -0.944,2.66 -2.088,3.554 -1.11,0.862 -2.452,1.292 -4.026,1.292 l -15.037,0 c -1.689,0 -3.123,-0.464 -4.299,-1.392 -1.243,-0.961 -1.864,-2.146 -1.864,-3.554 l 0,-16.751 3.106,0 0,16.751 c 0,0.497 0.273,0.928 0.82,1.292 l -0.025,-0.025 c 0.613,0.414 1.367,0.621 2.262,0.621 l 15.037,0 c 0.762,0 1.425,-0.166 1.988,-0.497 l -0.024,0 c 0.597,-0.364 1.002,-0.985 1.218,-1.864 l 2.436,0 0.496,0.573 z"
         id="path335" />
    </g>
    <g
       transform="translate(-295.99609,380.83417)"
       id="g337">
      <path
         d="m 740.254,164.577 19.454,0 -29.968,50.5 c -1.712,2.815 -3.382,4.981 -5.01,6.499 -1.628,1.518 -3.132,2.622 -4.512,3.311 -1.379,0.691 -2.566,1.091 -3.559,1.201 -0.994,0.111 -1.686,0.166 -2.07,0.166 l -17.882,0 0,-43.628 16.724,0 0.082,29.968 26.741,-48.017 z"
         id="path339"
         style="fill:#16813d" />
    </g>
    <g
       transform="translate(-295.99609,380.83417)"
       id="g369">
      <path
         d="m 774.246,211.954 c 0,1.505 -0.664,2.771 -1.992,3.798 -1.221,0.992 -2.744,1.487 -4.568,1.487 l -16.068,0 c -1.682,0 -3.107,-0.452 -4.275,-1.354 -1.258,-0.974 -2.055,-2.461 -2.391,-4.462 l 3.268,0 c 0.229,0.938 0.654,1.611 1.274,2.019 l -0.026,0 c 0.602,0.354 1.318,0.531 2.15,0.531 l 16.068,0 c 0.921,0 1.718,-0.213 2.391,-0.638 0.602,-0.389 0.903,-0.85 0.903,-1.381 l 0,-2.656 c 0,-0.495 -0.302,-0.938 -0.903,-1.328 -0.708,-0.46 -1.514,-0.691 -2.416,-0.691 l -8.553,0 0,-3.267 8.578,0 c 0.939,0 1.736,-0.221 2.391,-0.664 0.602,-0.389 0.903,-0.841 0.903,-1.354 l 0,-2.656 c 0,-0.496 -0.302,-0.938 -0.903,-1.328 -0.708,-0.46 -1.514,-0.69 -2.416,-0.69 l -16.043,0 c -0.814,0 -1.522,0.177 -2.124,0.531 l 0.026,0 c -0.637,0.372 -1.071,1.045 -1.301,2.019 l -3.268,0 c 0.318,-2.019 1.098,-3.488 2.338,-4.409 1.168,-0.938 2.611,-1.407 4.328,-1.407 l 16.068,0 c 1.789,0 3.312,0.496 4.568,1.487 1.328,1.045 1.992,2.311 1.992,3.798 0,1.292 -0.053,2.47 -0.159,3.532 -0.036,0.531 -0.212,1.019 -0.531,1.461 -0.142,0.195 -0.306,0.398 -0.491,0.611 -0.185,0.213 -0.412,0.443 -0.678,0.69 0.514,0.478 0.903,0.921 1.169,1.328 0.301,0.496 0.478,0.974 0.531,1.434 0.107,1.045 0.16,2.231 0.16,3.559 z"
         id="path371" />
    </g>
  </g>
</svg>
