<?xml version="1.0" encoding="UTF-8" standalone="no"?>
<!-- Created with Inkscape (http://www.inkscape.org/) -->

<svg
   xmlns:dc="http://purl.org/dc/elements/1.1/"
   xmlns:cc="http://creativecommons.org/ns#"
   xmlns:rdf="http://www.w3.org/1999/02/22-rdf-syntax-ns#"
   xmlns:svg="http://www.w3.org/2000/svg"
   xmlns="http://www.w3.org/2000/svg"
   version="1.0"
   width="1443.9137"
   height="1103.2476"
   id="svg2997">
  <metadata
     id="metadata46">
    <rdf:RDF>
      <cc:Work
         rdf:about="">
        <dc:format>image/svg+xml</dc:format>
        <dc:type
           rdf:resource="http://purl.org/dc/dcmitype/StillImage" />
        <dc:title></dc:title>
      </cc:Work>
    </rdf:RDF>
  </metadata>
  <defs
     id="defs3000" />
  <path
     d="M 348.0807,89.021345 C 248.9116,154.67189 93.4588,290.49034 19.1524,369.63821 37.4684,372.19086 56.8379,357.88914 77.5097,355.1579 L 220.3982,315.9533 C 161.0542,366.94037 36.1632,456.82209 0,527.61462 44.604,511.53881 138.212,457.62561 184.7456,453.20256 144.1074,490.51635 59.3004,561.29391 32.7325,606.34318 c 3.2073,1.51642 0.9847,5.46301 1.4746,8.21058 34.9537,-20.07562 119.8977,-72.57413 158.427,-76.1302 C 152.9784,581.21644 80.0216,663.61147 64.0517,718.8181 98.4853,695.32916 185.1074,647.6829 223.0265,633.225 c -8.6339,21.77766 -27.7837,37.95405 -40.2398,59.73743 -17.1801,30.13154 -57.8537,64.43056 -59.3724,100.22847 30.2082,-29.17422 67.6647,-54.9471 105.2654,-75.5126 -16.7644,36.19579 -47.6115,66.12946 -56.0105,109.20429 24.6462,-24.80717 71.3938,-37.72285 103.1582,-49.18986 l -3.8278,3.81204 c -2.7435,2.34767 -38.5218,28.6801 -62.8964,58.05355 21.677,-1.39775 5.5172,-4.11031 33.2432,2.20276 l -0.5245,1.39938 c -1.8918,165.72854 313.1837,226.30984 506.2774,217.90954 40.7129,-78.82609 18.7442,-206.18522 123.8934,-260.93781 70.7909,-37.67414 78.7943,-58.23827 160.5128,-42.87666 44.1454,8.27809 140.7341,41.65544 186.9806,31.12646 43.1642,-24.9649 64.133,-35.95755 102.343,-65.95021 36.9622,-56.18291 -294.6047,-238.24081 -26.5835,-2.10497 64.3013,13.76413 80.8944,11.72143 99.9555,-16.90003 8.5239,-23.10169 28.8409,-84.4676 47.4104,-124.45424 l 1.3022,-21.61979 C 1425.9075,503.14394 1430.2819,410.39993 1421.1742,397.0504 1361.7198,314.60591 1146.8301,301.69725 1049.6046,193.22274 1066.1681,139.37618 1031.3902,95.008066 995.9692,61.345002 942.7602,22.209358 869.3146,40.189836 812.6666,56.446364 748.1309,42.945044 688.4184,19.772596 625.5843,1.4219601 485.8308,-13.145891 348.0859,89.021853 348.0859,89.021853 l 0,0 z"
     id="path9"
     style="fill:#000000;fill-opacity:1;fill-rule:nonzero;stroke:none" />
  <path
     d="m 757.6913,134.88049 -46.3281,17.66807 c -5.5604,-11.06986 8.3083,-21.58448 13.8283,-31.91479 3.957,-7.56315 15.3252,-11.81343 18.0039,-20.935332 -59.9,-9.656886 -116.5149,-39.029267 -180.3978,-28.910853 -68.3073,10.788422 -108.0869,36.890375 -147.43,68.037195 -19.8572,10.87407 -29.4292,26.30025 -48.7324,39.30978 -23.5785,21.23595 -33.8342,63.56332 -39.7129,71.63904 34.2096,-14.80245 68.6219,-12.60199 91.8604,-20.42772 -87.3899,54.61896 -102.6503,161.30949 -78.4672,250.30319 l -1.426,1.94853 c -29.3615,-17.54497 -37.8727,-49.92801 -45.9926,-78.24046 -5.7865,18.60957 -6.6192,42.2469 -10.5586,63.02881 -9.3744,-8.7635 -14.5439,-21.30266 -19.7837,-32.46873 -9.8174,94.16932 36.0965,170.86672 92.3654,245.20334 37.6878,49.83709 -35.8954,82.82606 -18.5704,145.38911 l 88.5091,-4.95971 c 11.4004,-4.26478 7.8476,-2.7383 7.8476,-2.7383 -22.1746,44.37759 -139.5703,77.99921 -162.1287,103.37181 6.3028,5.21343 109.5169,-26.57643 147.2764,-32.99227 l -111.0814,62.78159 c 11.0387,3.41003 -0.3538,40.66648 23.8965,37.13891 153.6139,45.6002 326.6454,108.8865 353.603,42.8416 22.4947,-41.99552 55.7691,-113.12107 50.6318,-153.40622 l 23.8413,-36.22151 c -31.8029,7.90132 -63.8605,20.77811 -88.4509,46.96509 -7.3588,-15.42639 4.2041,-33.93698 9.942,-48.53196 16.4895,-29.60159 49.4481,-45.26477 75.5485,-62.08923 L 700.9617,752.3984 C 673.3226,704.94641 620.8385,665.84961 619.4314,610.10054 l 12.9767,4.42103 c 49.9687,56.74774 121.0171,102.80037 192.1723,106.09513 -48.4317,-4.15026 202.2744,-33.68962 187.5373,-54.92165 26.6534,38.32812 107.1967,54.43667 166.0544,74.56662 27.0318,-9.72825 38.8297,-6.95784 59.131,-25.25934 -8.6477,-9.38869 -22.0259,-17.07086 -34.9166,-21.94084 -77.3056,-21.34533 -259.8814,-58.90941 -299.2283,-134.93091 -7.4087,32.38839 22.5567,59.1016 56.0769,86.71802 L 887.1044,634.69828 C 760.2279,575.96731 775.5614,475.24169 803.4325,379.49671 l 9.6445,79.92101 24.8683,43.57792 c 47.2803,-85.55282 22.5396,-74.92429 -72.4371,-190.29217 l 71.6278,27.35842 c 32.7025,26.30913 86.4704,71.79209 134.1277,103.37337 128.3582,84.06355 191.8992,139.77301 354.8096,151.19207 l 50.2525,11.14849 c 35.5746,-93.21021 -33.3914,-179.27448 -12.5561,-48.99247 -26.5829,-32.31477 -52.5942,-62.21774 -47.1815,-79.08171 -9.3224,-14.08998 38.5994,-49.29639 34.5248,-65.32433 -47.0458,-47.82785 -250.4156,-73.49899 -360.8505,-183.08633 -3.2132,18.3263 51.0856,65.76529 60.4839,82.07851 -109.5369,1.07915 -174.0827,-32.55725 -185.7825,-68.05921 -2.414,-5.91215 0.5775,-32.21993 12.2561,-40.68136 15.8062,-8.25642 31.2,-20.79512 49.3857,-22.47709 -28.4697,-23.23141 -64.4952,7.89882 -89.6958,21.95299 -19.5698,33.61567 10.9188,71.08024 14.7608,98.41833 -26.6928,-6.74351 -62.7559,-53.77222 -67.181,-83.29592 -40.5967,4.4496 -77.8529,-0.80278 -109.0602,-24.24569 27.5379,-6.04029 55.9889,-16.34041 84.8108,-21.55062 75.4532,-16.46366 154.7002,-94.018473 230.9091,-33.4024 L 955.6826,92.926962 C 884.5531,85.438248 822.7185,118.45745 757.6917,134.88051 l 0,0 z"
     id="path11"
     style="fill:#ff1a00;fill-rule:nonzero;stroke:none" />
  <path
     d="m 508.8343,169.02194 c -20.2584,23.63302 -40.549,47.28051 -45.2731,79.05145 l 4.5282,5.32896 c 13.5327,-16.28307 33.8158,-29.92039 52.495,-39.38353 0.021,33.48305 21.6187,66.30818 50.4832,82.4497 l 4.847,0.33936 c -6.1156,-35.3647 -2.0368,-78.59006 11.7918,-110.50483 22.0179,-18.51726 50.9811,-25.87422 69.6053,-45.35089 -46.6326,-10.9059 -91.0121,-1.66992 -130.895,13.50881 l -17.5823,14.55962 0,0 z"
     id="path13"
     style="fill-rule:nonzero;stroke:none" />
  <path
     d="m 977.0632,267.41104 c -19.1738,-26.49126 -46.3867,-47.7439 -80.9719,-44.72159 0.3461,32.69056 44.9184,51.74723 80.9719,44.72159 z"
     id="path15"
     style="fill:#ffffff;fill-rule:nonzero;stroke:none" />
  <path
     d="m 700.4269,271.63576 c -30.0309,2.29449 -58.1648,7.63873 -86.4668,15.03116 12.4875,11.50586 28.2721,15.3808 40.102,26.1549 -37.0415,13.97035 -75.8437,22.85729 -108.2313,51.41256 l 6.7133,3.98818 c 59.8968,-12.47023 130.7244,-11.41218 193.2133,1.96327 l 3.6082,-2.60887 -36.2041,-65.84251 55.6742,-12.04855 c -29.5402,-27.61373 -63.3363,-54.77519 -102.2148,-66.59382 5.9357,16.07904 22.2963,32.13363 33.8052,48.55992 l 8e-4,-0.0161 0,0 z"
     id="path17"
     style="fill-rule:nonzero;stroke:none" />
  <path
     d="m 917.9338,337.63703 c 29.5378,5.47047 62.194,6.18387 90.3562,0.90584 -46.5123,-23.72851 -105.9147,-19.05562 -142.9472,-60.72604 6.9971,21.87014 22.1535,57.1038 52.591,59.8202 z"
     id="path19"
     style="fill-rule:nonzero;stroke:none" />
  <path
     d="m 475.8453,505.13501 c 11.5849,37.13185 -27.4067,82.37387 3.8216,116.49259 26.5884,30.97058 59.0696,56.66853 90.3141,79.38453 l -2.7547,-11.58366 c -27.8362,-32.51148 -53.4143,-68.40083 -66.28,-107.04296 32.6139,11.40194 67.0866,27.21222 104.3412,32.4969 -41.9569,-62.68436 -118.8638,-122.62511 -89.8918,-208.41395 1.5801,-14.16983 20.3321,-25.07072 15.6051,-38.2341 -43.8224,33.49851 -62.1826,82.95622 -55.1555,136.90065 l 0,0 z"
     id="path21"
     style="fill-rule:nonzero;stroke:none" />
  <path
     d="m 1051.1575,553.55654 c -4.0978,7.23162 -2.6172,17.80747 -3.8944,26.69672 9.0827,-4.64814 15.5371,-14.71779 24.5826,-18.63901 -2.6325,-5.37311 -14.2852,-5.39823 -20.6875,-8.05768 z"
     id="path23"
     style="fill:#ffffff;fill-rule:nonzero;stroke:none" />
  <path
     d="m 1104.2886,608.99971 18.625,-18.26171 c -4.1276,-3.28283 -9.6291,-8.11302 -17.1102,-6.35956 l -1.5206,24.62096 z"
     id="path25"
     style="fill:#ffffff;fill-rule:nonzero;stroke:none" />
  <path
     d="m 1148.2283,628.68659 c 4.3744,0.31404 14.4267,-20.17134 18.8023,-19.87207 l -14.7779,-8.72908 c -5.1005,-0.32309 -2.322,24.98294 -4.0244,28.60115 z"
     id="path27"
     style="fill:#ffffff;fill-rule:nonzero;stroke:none" />
  <path
     d="m 1193.6171,637.97081 -4.7359,11.66817 c 10.2767,-0.82601 15.527,-20.67933 21.6883,-26.26152 -17.0721,-3.40957 -17.7148,-8.12518 -16.9524,14.59335 z"
     id="path29"
     style="fill:#ffffff;fill-rule:nonzero;stroke:none" />
  <path
     d="m 1242.3038,664.87735 18.3904,-31.55693 -17.1085,-3.9297 -1.2819,35.48666 z"
     id="path31"
     style="fill:#ffffff;fill-rule:nonzero;stroke:none" />
  <path
     d="m 1289.2693,659.42456 21.073,-16.10574 c -21.2105,-8.32871 -22.4093,-11.43824 -21.073,16.10574 z"
     id="path33"
     style="fill:#ffffff;fill-rule:nonzero;stroke:none" />
  <path
     d="m 1340.0848,646.64589 c 3.0983,9.18852 0.2279,20.22773 -0.3946,29.91337 4.9673,-9.40421 16.3677,-16.13111 17.7605,-27.28192 -4.8456,-4.06627 -11.541,-2.23835 -17.3646,-2.63138 l 0,0 z"
     id="path35"
     style="fill:#ffffff;fill-rule:nonzero;stroke:none" />
  <path
     d="m 707.1278,998.78142 c 6.7113,12.65418 7.0272,28.05958 13.7385,40.71368 15.909,-34.2978 14.104,-75.50589 -6.5524,-106.35296 -35.8933,-15.82162 -70.5559,-32.24144 -101.4877,-57.35423 12.8518,43.84108 54.9123,92.17927 94.3016,122.99351 l 0,0 z"
     id="path37"
     style="fill-rule:nonzero;stroke:none" />
  <path
     d="m 928.0379,271.1498 c -11.721,-3.04153 -18.5657,-16.17275 -15.3619,-29.38088 3.2701,-13.25316 15.3793,-21.49715 27.1003,-18.45549 11.7223,3.00943 18.5649,16.18891 15.3616,29.38087 -3.2676,13.2047 -15.409,21.46315 -27.1,18.4555 z"
     id="path71"
     style="fill-rule:nonzero;stroke:none" />
  <path
     d="m 694.3137,1086.4614 34.8225,-28.3648 c -33.8711,-21.9982 -91.2082,-61.45117 -122.2119,-90.71455 24.3483,50.64485 25.0975,106.69625 87.3894,119.07935 z"
     id="path75"
     style="fill-rule:nonzero;stroke:none" />
  <path
     d="m 196.9479,859.99949 c 141.874,186.36121 334.8163,260.26381 570,240.00001 l -20,-43.5 c -209.1769,7.7531 -383.3098,-44.1104 -502,-216.00001 l -48,19.5 z"
     id="path2225"
     style="fill:#000000;fill-opacity:1;fill-rule:evenodd;stroke:none;display:inline" />
</svg>
