<?xml version="1.0" encoding="utf-8"?>
<!-- Generator: Adobe Illustrator 14.0.0, SVG Export Plug-In . SVG Version: 6.00 Build 43363)  -->
<!DOCTYPE svg PUBLIC "-//W3C//DTD SVG 1.1//EN" "http://www.w3.org/Graphics/SVG/1.1/DTD/svg11.dtd">
<svg version="1.1" id="Layer_1" xmlns="http://www.w3.org/2000/svg" xmlns:xlink="http://www.w3.org/1999/xlink" x="0px" y="0px"
	 width="566.7px" height="566.7px" viewBox="0 0 566.7 566.7" enable-background="new 0 0 566.7 566.7" xml:space="preserve">
<g>
	<circle fill="#433E6F" cx="283.35" cy="283.35" r="265.5"/>
	<path fill="#FFFFFF" d="M468.305,302.987c-8.946-56.447-68.168-93.012-112.268-120.588c-19.266-12.047-50.499-27.74-54.538-53.076
		c-1.668-10.469-1.607-21.287-1.957-31.858c-0.139-4.151-0.202-8.327-0.573-12.467c-0.48-5.343-5.917,1.242-8.897-3.42
		c-7.383-11.543-4.542,3.498-3.815,9.566c1.708,14.275,3.714,28.508,3.6,42.917c-0.221,27.538-4.659,53.899-11.524,80.431
		c-16.081,62.135-28.766,125.796-12.859,189.379c3.297,13.174,7.587,26.171,13.225,38.536c1.704,3.739,4.966,14.176,9.655,15.426
		c16.886,4.506,29.655,5.811,43.141,18.371c8.373,7.8,14.653,3.539,24.558-0.424c30-12.006,55.999-27.114,77.257-51.839
		C463.19,389.187,475.518,348.503,468.305,302.987 M436.575,359.823c-2.661,23.218-17.225,44.015-32.096,61.258
		c-10.78,12.498-25.365,28.72-41.348,34.41c-5.754,2.05,1.053-9.462,1.896-10.73c4.948-7.44,11.045-14.004,16.706-20.888
		c8.376-10.18,15.63-20.864,20.532-33.192c16.276-40.914,12.578-90.507-11.51-127.365c-13.114-20.068-31.113-37.03-49.257-52.504
		c-8.767-7.477-17.637-14.545-25.014-23.493c-1.706-2.066-16.771-21.789-12.085-24.705c1.515-0.943,34.442,33.694,38.023,36.398
		c13.616,10.281,27.62,19.787,40.227,31.364c17.062,15.674,34.585,33.184,44.36,54.501
		C437.724,308.235,439.468,334.567,436.575,359.823"/>
	<path fill="#FFFFFF" d="M273.572,25.007c4.942,3.295,6.04,22.518,6.04,40.092c0,17.578,1.648,93.37-3.844,113.692
		c-5.491,20.322-18.124,42.841-31.854,62.612c-13.73,19.772-29.659,61.513-29.11,87.326c0.548,25.816,15.379,68.105,26.913,85.682
		c11.577,17.642,31.23,42.229,26.912,47.783c-7.69,9.886-38.994-24.167-55.472-43.938c-16.478-19.773-32.955-59.869-33.503-91.173
		c-0.55-31.307,17.025-60.417,29.659-77.991c12.632-17.576,37.347-47.784,43.938-61.514c6.59-13.731,13.73-28.559,15.928-47.784
		c2.197-19.223,0-87.877,0-87.877S268.628,21.711,273.572,25.007z"/>
	<path fill="#FFFFFF" d="M260.389,57.411c4.942,2.197,5.492,8.238,5.492,14.28c0,6.041-1.648,30.757-3.295,54.923
		c-1.648,24.166-20.87,44.488-35.151,58.767c-14.279,14.279-55.472,58.768-70.851,80.738
		c-15.378,21.969-23.042,50.907-21.419,75.244c1.647,24.716,7.688,48.881,30.757,74.696c23.068,25.813,38.996,37.896,51.078,43.938
		c12.084,6.039,24.167,10.434,21.42,15.928c-2.747,5.491-14.281,1.646-26.913-2.746c-12.632-4.396-55.472-21.968-80.188-49.98
		c-24.714-28.013-37.347-65.359-36.249-101.061c1.098-35.699,10.985-50.528,27.462-73.596
		c16.477-23.067,62.062-57.119,76.342-65.907c14.281-8.788,33.502-23.617,42.841-35.7c9.336-12.083,14.279-21.972,13.729-38.448
		c-0.548-16.476,1.1-31.306,0.55-36.797C255.445,66.199,255.445,55.215,260.389,57.411z"/>
	<path fill="#FFFFFF" d="M261.765,487.928c2.234-0.09,0.823,9.588-3.121,14.391c-3.945,4.801-10.718,7.688-11.541,5.757
		c-0.827-1.933,4.891-3.044,9.088-7.716C260.046,496.07,259.026,488.04,261.765,487.928z"/>
	<path fill="#FFFFFF" d="M306.216,487.675c-2.232-0.093-0.821,9.585,3.123,14.386c3.943,4.801,10.717,7.691,11.539,5.759
		c0.826-1.933-4.892-3.043-9.089-7.716C307.935,495.816,308.956,487.781,306.216,487.675z"/>
	<path fill="#FFFFFF" d="M286.456,498.174c0,8.453,0.431,15.303-1.414,15.303c-2.272,0-1.416-6.85-1.416-15.303
		c0-8.452-0.771-15.306,1.416-15.306C287.056,482.868,286.456,489.721,286.456,498.174z"/>
</g>
</svg>